<?xml version="1.0" encoding="UTF-8" standalone="no"?>
<svg
   xmlns:dc="http://purl.org/dc/elements/1.1/"
   xmlns:cc="http://creativecommons.org/ns#"
   xmlns:rdf="http://www.w3.org/1999/02/22-rdf-syntax-ns#"
   xmlns:svg="http://www.w3.org/2000/svg"
   xmlns="http://www.w3.org/2000/svg"
   xmlns:xlink="http://www.w3.org/1999/xlink"
   xmlns:sodipodi="http://sodipodi.sourceforge.net/DTD/sodipodi-0.dtd"
   xmlns:inkscape="http://www.inkscape.org/namespaces/inkscape"
   id="Layer_1"
   data-name="Layer 1"
   viewBox="0 0 48 48"
   version="1.1"
   sodipodi:docname="typeAssemblyFixed48.svg"
   inkscape:version="0.92.3 (2405546, 2018-03-11)">
  <metadata
     id="metadata62">
    <rdf:RDF>
      <cc:Work
         rdf:about="">
        <dc:format>image/svg+xml</dc:format>
        <dc:type
           rdf:resource="http://purl.org/dc/dcmitype/StillImage" />
        <dc:title></dc:title>
      </cc:Work>
    </rdf:RDF>
  </metadata>
  <sodipodi:namedview
     pagecolor="#ffffff"
     bordercolor="#666666"
     borderopacity="1"
     objecttolerance="10"
     gridtolerance="10"
     guidetolerance="10"
     inkscape:pageopacity="0"
     inkscape:pageshadow="2"
     inkscape:window-width="1918"
     inkscape:window-height="809"
     id="namedview60"
     showgrid="false"
     inkscape:zoom="4.9166667"
     inkscape:cx="24"
     inkscape:cy="24"
     inkscape:window-x="-9"
     inkscape:window-y="-9"
     inkscape:window-maximized="1"
     inkscape:current-layer="Layer_1" />
  <defs
     id="defs23">
    <linearGradient
       id="New_Gradient_Swatch_1"
       data-name="New Gradient Swatch 1"
       x1="22.5"
       y1="21"
       x2="34.5"
       y2="33"
       gradientUnits="userSpaceOnUse">
      <stop
         offset="0"
         stop-color="#cde6eb"
         id="stop2" />
      <stop
         offset="0.2214"
         stop-color="#c6e2e8"
         id="stop4" />
      <stop
         offset="0.5419"
         stop-color="#b3d8e1"
         id="stop6" />
      <stop
         offset="0.9212"
         stop-color="#93c7d5"
         id="stop8" />
      <stop
         offset="1"
         stop-color="#8cc3d2"
         id="stop10" />
    </linearGradient>
    <linearGradient
       id="New_Gradient_Swatch_2"
       data-name="New Gradient Swatch 2"
       x1="-1"
       y1="17.5"
       x2="26"
       y2="44.5"
       gradientUnits="userSpaceOnUse">
      <stop
         offset="0"
         stop-color="#afd7e1"
         id="stop13" />
      <stop
         offset="0.1588"
         stop-color="#a4d0dc"
         id="stop15" />
      <stop
         offset="0.7059"
         stop-color="#80bcce"
         id="stop17" />
      <stop
         offset="1"
         stop-color="#73b4c8"
         id="stop19" />
    </linearGradient>
    <linearGradient
       id="New_Gradient_Swatch_1-2"
       x1="12.5"
       y1="4"
       x2="24.5"
       y2="16"
       xlink:href="#New_Gradient_Swatch_1" />
  </defs>
  <polygon
     points="23.5 36 23.5 47 33.5 41 33.5 30 23.5 36"
     fill="#627278"
     id="polygon25"
     style="fill:#d46d00" />
  <polygon
     points="33.5 30 33.5 41 43.5 35 43.5 24 33.5 30"
     fill="#627278"
     id="polygon27"
     style="fill:#d46d00" />
  <polygon
     points="23.5 13 23.5 24 33.5 18 33.5 7 23.5 13"
     fill="#627278"
     id="polygon29"
     style="fill:#d46d00" />
  <polygon
     points="13.5 19 13.5 30 23.5 24 23.5 13 13.5 19"
     fill="#627278"
     id="polygon31"
     style="fill:#d46d00" />
  <line
     x1="33.5"
     y1="30"
     x2="33.5"
     y2="41"
     fill="none"
     stroke="#788487"
     stroke-linejoin="round"
     id="line33" />
  <line
     x1="23.5"
     y1="24"
     x2="23.5"
     y2="13"
     fill="none"
     stroke="#788487"
     stroke-linejoin="round"
     id="line35" />
  <polygon
     points="33.5 18 23.5 24 13.5 30 23.5 36 33.5 30 43.5 24 33.5 18"
     fill="url(#New_Gradient_Swatch_1)"
     id="polygon37"
     style="fill:#d46d00" />
  <polygon
     points="13.5 30 13.5 19 3.5 13 3.5 35 23.5 47 23.5 36 13.5 30"
     fill="url(#New_Gradient_Swatch_2)"
     id="polygon39"
     style="fill:#d46d00" />
  <line
     x1="13.5"
     y1="30"
     x2="3.5"
     y2="24"
     fill="none"
     stroke="#788487"
     stroke-linejoin="round"
     id="line41" />
  <line
     x1="23.5"
     y1="36"
     x2="23.5"
     y2="47"
     fill="none"
     stroke="#788487"
     stroke-linejoin="round"
     id="line43" />
  <line
     x1="13.5"
     y1="41"
     x2="13.5"
     y2="19"
     fill="none"
     stroke="#788487"
     stroke-linejoin="round"
     id="line45" />
  <polygon
     points="23.5 1 13.5 7 3.5 13 13.5 19 23.5 13 33.5 7 23.5 1"
     fill="url(#New_Gradient_Swatch_1-2)"
     id="polygon47"
     style="fill:#d46d00" />
  <polyline
     points="23.5 13 13.5 19 3.5 13"
     fill="none"
     stroke="#788487"
     stroke-linejoin="round"
     id="polyline49" />
  <polyline
     points="33.5 30 23.5 36 13.5 30 23.5 24"
     fill="none"
     stroke="#788487"
     stroke-linejoin="round"
     id="polyline51" />
  <polyline
     points="33.5 7 23.5 13 13.5 7"
     fill="none"
     stroke="#788487"
     stroke-linejoin="round"
     id="polyline53" />
  <polyline
     points="43.5 24 33.5 30 23.5 24 33.5 18"
     fill="none"
     stroke="#788487"
     stroke-linejoin="round"
     id="polyline55" />
  <path
     d="M3.5,13l0,22,20,12,20-12V24l-10-6V7l-10-6Z"
     fill="none"
     stroke="#464646"
     stroke-linejoin="round"
     id="path57" />
</svg>
