<?xml version="1.0" encoding="UTF-8"?>
<!DOCTYPE svg PUBLIC "-//W3C//DTD SVG 1.1//EN" "http://www.w3.org/Graphics/SVG/1.1/DTD/svg11.dtd">
<svg xmlns="http://www.w3.org/2000/svg" version="1.1" width="500px" height="500px" style="shape-rendering:geometricPrecision; text-rendering:geometricPrecision; image-rendering:optimizeQuality; fill-rule:evenodd; clip-rule:evenodd" xmlns:xlink="http://www.w3.org/1999/xlink">
<g><path style="opacity:0.424" fill="#103544" d="M 150.5,71.5 C 145.73,70.243 143.397,72.243 143.5,77.5C 142.833,77.1667 142.167,76.8333 141.5,76.5C 140.833,76.5 140.5,76.1667 140.5,75.5C 142.178,74.2529 143.511,72.5862 144.5,70.5C 146.912,69.051 148.912,69.3843 150.5,71.5 Z"/></g>
<g><path style="opacity:1" fill="#2c7074" d="M 141.5,76.5 C 142.167,76.8333 142.833,77.1667 143.5,77.5C 143.5,77.8333 143.5,78.1667 143.5,78.5C 141.901,78.2322 140.568,78.5655 139.5,79.5C 138.518,78.8592 137.518,78.1925 136.5,77.5C 135.614,78.325 135.281,79.325 135.5,80.5C 130.875,80.5594 126.542,81.7261 122.5,84C 117.516,87.2628 112.516,90.4295 107.5,93.5C 107.414,92.5041 107.748,91.6708 108.5,91C 114.036,89.005 118.703,85.8384 122.5,81.5C 126.164,80.5051 129.831,79.5051 133.5,78.5C 133.5,77.5 133.5,76.5 133.5,75.5C 136.157,75.162 138.49,75.8287 140.5,77.5C 141.107,77.3764 141.44,77.0431 141.5,76.5 Z"/></g>
<g><path style="opacity:1" fill="#38503a" d="M 140.5,75.5 C 140.5,76.1667 140.833,76.5 141.5,76.5C 141.44,77.0431 141.107,77.3764 140.5,77.5C 138.49,75.8287 136.157,75.162 133.5,75.5C 133.5,76.5 133.5,77.5 133.5,78.5C 129.831,79.5051 126.164,80.5051 122.5,81.5C 126.704,76.5646 132.037,74.0646 138.5,74C 139.044,74.7172 139.711,75.2172 140.5,75.5 Z"/></g>
<g><path style="opacity:1" fill="#4c7860" d="M 143.5,78.5 C 148.022,81.7726 153.022,84.6059 158.5,87C 160.384,88.0487 161.718,89.5487 162.5,91.5C 156.827,87.9968 150.827,84.9968 144.5,82.5C 141.871,83.8018 139.538,85.4684 137.5,87.5C 135.315,87.7036 133.315,88.3702 131.5,89.5C 133.159,86.167 135.825,84.5003 139.5,84.5C 139.5,82.8333 139.5,81.1667 139.5,79.5C 140.568,78.5655 141.901,78.2322 143.5,78.5 Z"/></g>
<g><path style="opacity:0.616" fill="#0f3f4d" d="M 151.5,71.5 C 165.838,79.6667 179.838,88.3334 193.5,97.5C 192.448,97.6495 191.448,97.4828 190.5,97C 178.845,90.0182 167.178,83.0182 155.5,76C 153.365,75.1237 152.031,73.6237 151.5,71.5 Z"/></g>
<g><path style="opacity:1" fill="#b48b01" d="M 163.5,93.5 C 164.167,93.5 164.833,93.5 165.5,93.5C 167.163,95.5329 169.163,97.3662 171.5,99C 174.505,99.533 177.172,100.7 179.5,102.5C 182.159,104.164 184.825,105.83 187.5,107.5C 189.651,110.415 192.651,112.082 196.5,112.5C 197.984,114.074 199.651,115.407 201.5,116.5C 204.368,119.952 208.035,122.452 212.5,124C 214.54,126.185 215.874,128.685 216.5,131.5C 221.244,131.269 225.577,132.435 229.5,135C 228.833,135.667 228.167,136.333 227.5,137C 229.92,136.012 232.253,136.345 234.5,138C 232.138,139.731 229.471,140.565 226.5,140.5C 226.5,141.833 226.5,143.167 226.5,144.5C 224.447,144.402 222.78,145.069 221.5,146.5C 220.167,148.167 218.833,149.833 217.5,151.5C 213.707,151.731 210.374,153.065 207.5,155.5C 203.861,155.422 201.194,156.922 199.5,160C 189.979,162.093 181.979,166.759 175.5,174C 169.314,176.869 163.147,179.702 157,182.5C 156.667,182.167 156.333,181.833 156,181.5C 152.707,187.893 147.54,189.893 140.5,187.5C 139.833,187.5 139.167,187.5 138.5,187.5C 134.725,181.566 129.391,177.733 122.5,176C 119.545,172.715 115.878,170.715 111.5,170C 110.183,168.341 108.517,167.174 106.5,166.5C 105.573,164.887 104.739,163.221 104,161.5C 103.275,163.158 102.108,163.658 100.5,163C 97.9784,162.39 95.9784,161.057 94.5,159C 90.1981,158.714 86.8648,156.714 84.5,153C 82.8659,152.506 81.1992,152.34 79.5,152.5C 79.5,151.167 79.5,149.833 79.5,148.5C 72.1648,147.677 66.3315,144.344 62,138.5C 60.9887,139.337 59.8221,139.67 58.5,139.5C 51.5453,138.116 50.8786,135.449 56.5,131.5C 59.0041,130.416 61.3374,129.083 63.5,127.5C 64.8333,127.5 66.1667,127.5 67.5,127.5C 69.2624,127.643 70.9291,127.309 72.5,126.5C 76.2785,123.725 79.9452,120.892 83.5,118C 86.9567,116.257 90.6233,115.257 94.5,115C 95.8333,114.333 95.8333,113.667 94.5,113C 97.0387,111.3 99.7053,109.8 102.5,108.5C 103.127,107.583 103.461,106.583 103.5,105.5C 106.852,105.47 109.518,104.137 111.5,101.5C 114.247,100.034 117.247,99.2009 120.5,99C 123.066,96.9281 125.4,94.7615 127.5,92.5C 128.306,91.2719 129.306,90.2719 130.5,89.5C 130.833,89.5 131.167,89.5 131.5,89.5C 133.315,88.3702 135.315,87.7036 137.5,87.5C 140.645,85.8092 143.979,85.3092 147.5,86C 149.392,86.9734 151.392,87.6401 153.5,88C 155.785,91.5881 159.118,93.4215 163.5,93.5 Z"/></g>
<g><path style="opacity:1" fill="#998a23" d="M 162.5,91.5 C 162.833,92.1667 163.167,92.8333 163.5,93.5C 159.118,93.4215 155.785,91.5881 153.5,88C 151.392,87.6401 149.392,86.9734 147.5,86C 143.979,85.3092 140.645,85.8092 137.5,87.5C 139.538,85.4684 141.871,83.8018 144.5,82.5C 150.827,84.9968 156.827,87.9968 162.5,91.5 Z"/></g>
<g><path style="opacity:0.969" fill="#355341" d="M 122.5,81.5 C 118.703,85.8384 114.036,89.005 108.5,91C 107.748,91.6708 107.414,92.5041 107.5,93.5C 106.127,93.3433 104.793,93.51 103.5,94C 94.061,100.277 84.061,105.444 73.5,109.5C 89.337,99.4114 105.67,90.078 122.5,81.5 Z"/></g>
<g><path style="opacity:1" fill="#667e49" d="M 165.5,93.5 C 171.195,95.0076 175.862,98.0076 179.5,102.5C 177.172,100.7 174.505,99.533 171.5,99C 169.163,97.3662 167.163,95.5329 165.5,93.5 Z"/></g>
<g><path style="opacity:1" fill="#317477" d="M 130.5,89.5 C 129.306,90.2719 128.306,91.2719 127.5,92.5C 124.103,94.528 120.436,96.028 116.5,97C 114.308,98.0669 112.642,99.5669 111.5,101.5C 108.148,101.53 105.482,102.863 103.5,105.5C 100.605,106.399 97.9384,107.733 95.5,109.5C 97.1244,107.209 99.1244,105.209 101.5,103.5C 102.991,102.756 104.491,102.09 106,101.5C 106.684,100.216 106.517,99.0495 105.5,98C 111.55,98.228 117.05,96.728 122,93.5C 122.483,92.552 122.649,91.552 122.5,90.5C 125.206,90.4249 127.873,90.0916 130.5,89.5 Z"/></g>
<g><path style="opacity:1" fill="#8f872b" d="M 127.5,92.5 C 125.4,94.7615 123.066,96.9281 120.5,99C 117.247,99.2009 114.247,100.034 111.5,101.5C 112.642,99.5669 114.308,98.0669 116.5,97C 120.436,96.028 124.103,94.528 127.5,92.5 Z"/></g>
<g><path style="opacity:0.639" fill="#0a3c4b" d="M 194.5,97.5 C 198.054,98.7693 201.054,100.769 203.5,103.5C 199.383,103.03 196.383,101.03 194.5,97.5 Z"/></g>
<g><path style="opacity:1" fill="#577b56" d="M 179.5,102.5 C 183.684,102.592 187.017,104.259 189.5,107.5C 188.833,107.5 188.167,107.5 187.5,107.5C 184.825,105.83 182.159,104.164 179.5,102.5 Z"/></g>
<g><path style="opacity:1" fill="#828337" d="M 111.5,101.5 C 109.518,104.137 106.852,105.47 103.5,105.5C 105.482,102.863 108.148,101.53 111.5,101.5 Z"/></g>
<g><path style="opacity:1" fill="#7c8536" d="M 187.5,107.5 C 188.167,107.5 188.833,107.5 189.5,107.5C 192.009,108.921 194.343,110.588 196.5,112.5C 192.651,112.082 189.651,110.415 187.5,107.5 Z"/></g>
<g><path style="opacity:1" fill="#9a8a23" d="M 103.5,105.5 C 103.461,106.583 103.127,107.583 102.5,108.5C 99.7053,109.8 97.0387,111.3 94.5,113C 95.8333,113.667 95.8333,114.333 94.5,115C 90.6233,115.257 86.9567,116.257 83.5,118C 79.9452,120.892 76.2785,123.725 72.5,126.5C 70.9291,127.309 69.2624,127.643 67.5,127.5C 69.5714,126.109 71.2381,124.276 72.5,122C 73.8333,121.667 75.1667,121.333 76.5,121C 78.5264,119.406 80.5264,117.906 82.5,116.5C 87.2208,114.718 91.5542,112.385 95.5,109.5C 97.9384,107.733 100.605,106.399 103.5,105.5 Z"/></g>
<g><path style="opacity:1" fill="#567d56" d="M 196.5,112.5 C 200.779,112.971 204.112,114.971 206.5,118.5C 204.833,117.833 203.167,117.167 201.5,116.5C 199.651,115.407 197.984,114.074 196.5,112.5 Z"/></g>
<g><path style="opacity:0.396" fill="#103e4e" d="M 203.5,103.5 C 219.71,112.213 235.543,121.546 251,131.5C 251.498,134.482 251.665,137.482 251.5,140.5C 251.167,140.5 250.833,140.5 250.5,140.5C 250.5,139.167 250.5,137.833 250.5,136.5C 250.714,134.856 250.38,133.356 249.5,132C 236.244,123.54 222.577,115.874 208.5,109C 206.799,107.161 205.132,105.327 203.5,103.5 Z"/></g>
<g><path style="opacity:1" fill="#597a53" d="M 206.5,118.5 C 207.873,118.343 209.207,118.51 210.5,119C 212.398,120.417 214.064,121.917 215.5,123.5C 212.22,122.193 209.22,120.527 206.5,118.5 Z"/></g>
<g><path style="opacity:1" fill="#19718b" d="M 150.5,71.5 C 150.833,71.5 151.167,71.5 151.5,71.5C 152.031,73.6237 153.365,75.1237 155.5,76C 167.178,83.0182 178.845,90.0182 190.5,97C 191.448,97.4828 192.448,97.6495 193.5,97.5C 193.833,97.5 194.167,97.5 194.5,97.5C 196.383,101.03 199.383,103.03 203.5,103.5C 205.132,105.327 206.799,107.161 208.5,109C 222.577,115.874 236.244,123.54 249.5,132C 250.38,133.356 250.714,134.856 250.5,136.5C 249.167,137.5 247.833,138.5 246.5,139.5C 245.5,139.5 244.5,139.5 243.5,139.5C 243.646,137.058 242.813,136.391 241,137.5C 239.549,135.536 237.716,134.203 235.5,133.5C 234.167,133.5 232.833,133.5 231.5,133.5C 229.966,131.631 227.966,130.298 225.5,129.5C 221.957,127.98 218.624,125.98 215.5,123.5C 214.064,121.917 212.398,120.417 210.5,119C 209.207,118.51 207.873,118.343 206.5,118.5C 204.112,114.971 200.779,112.971 196.5,112.5C 194.343,110.588 192.009,108.921 189.5,107.5C 187.017,104.259 183.684,102.592 179.5,102.5C 175.862,98.0076 171.195,95.0076 165.5,93.5C 164.833,93.5 164.167,93.5 163.5,93.5C 163.167,92.8333 162.833,92.1667 162.5,91.5C 161.718,89.5487 160.384,88.0487 158.5,87C 153.022,84.6059 148.022,81.7726 143.5,78.5C 143.5,78.1667 143.5,77.8333 143.5,77.5C 143.397,72.243 145.73,70.243 150.5,71.5 Z"/></g>
<g><path style="opacity:1" fill="#28656c" d="M 73.5,109.5 C 72.1879,111.479 70.5212,113.145 68.5,114.5C 67.2889,115.72 67.2889,116.887 68.5,118C 63.3031,119.536 58.3031,121.536 53.5,124C 50.1075,128.855 45.4409,130.688 39.5,129.5C 50.1671,121.828 61.5004,115.162 73.5,109.5 Z"/></g>
<g><path style="opacity:1" fill="#4d795c" d="M 82.5,116.5 C 80.5264,117.906 78.5264,119.406 76.5,121C 75.1667,121.333 73.8333,121.667 72.5,122C 71.2381,124.276 69.5714,126.109 67.5,127.5C 66.1667,127.5 64.8333,127.5 63.5,127.5C 68.8423,122.232 75.1756,118.566 82.5,116.5 Z"/></g>
<g><path style="opacity:1" fill="#9e8a1c" d="M 201.5,116.5 C 203.167,117.167 204.833,117.833 206.5,118.5C 209.22,120.527 212.22,122.193 215.5,123.5C 218.624,125.98 221.957,127.98 225.5,129.5C 226.802,131.822 228.802,133.155 231.5,133.5C 232.622,134.947 234.122,135.947 236,136.5C 236.749,137.635 236.583,138.635 235.5,139.5C 231.263,142.748 226.596,145.081 221.5,146.5C 222.78,145.069 224.447,144.402 226.5,144.5C 226.5,143.167 226.5,141.833 226.5,140.5C 229.471,140.565 232.138,139.731 234.5,138C 232.253,136.345 229.92,136.012 227.5,137C 228.167,136.333 228.833,135.667 229.5,135C 225.577,132.435 221.244,131.269 216.5,131.5C 215.874,128.685 214.54,126.185 212.5,124C 208.035,122.452 204.368,119.952 201.5,116.5 Z"/></g>
<g><path style="opacity:1" fill="#617f47" d="M 225.5,129.5 C 227.966,130.298 229.966,131.631 231.5,133.5C 228.802,133.155 226.802,131.822 225.5,129.5 Z"/></g>
<g><path style="opacity:1" fill="#437768" d="M 56.5,131.5 C 50.8786,135.449 51.5453,138.116 58.5,139.5C 61.9777,141.991 65.311,144.658 68.5,147.5C 65.295,146.899 62.295,145.732 59.5,144C 56.1975,141.551 52.8641,139.384 49.5,137.5C 49.3272,132.677 51.6606,130.677 56.5,131.5 Z"/></g>
<g><path style="opacity:1" fill="#5c7e53" d="M 231.5,133.5 C 232.833,133.5 234.167,133.5 235.5,133.5C 236.458,134.962 237.624,136.295 239,137.5C 239.667,138.167 239.667,138.833 239,139.5C 232.146,144.217 224.979,148.217 217.5,151.5C 218.833,149.833 220.167,148.167 221.5,146.5C 226.596,145.081 231.263,142.748 235.5,139.5C 236.583,138.635 236.749,137.635 236,136.5C 234.122,135.947 232.622,134.947 231.5,133.5 Z"/></g>
<g><path style="opacity:1" fill="#b48b01" d="M 53.5,148.5 C 54.391,149.11 55.391,149.443 56.5,149.5C 57.5,149.833 58.1667,150.5 58.5,151.5C 61.0971,154.476 64.4304,156.476 68.5,157.5C 68.8333,158.167 69.1667,158.833 69.5,159.5C 74.377,162.442 79.377,164.775 84.5,166.5C 86.487,167.164 88.1537,168.331 89.5,170C 90.7932,170.49 92.1266,170.657 93.5,170.5C 95.2964,172.9 97.6298,174.567 100.5,175.5C 103.693,179.934 108.027,182.601 113.5,183.5C 114.141,184.482 114.807,185.482 115.5,186.5C 118.736,188.948 122.402,190.615 126.5,191.5C 127.167,191.833 127.833,192.167 128.5,192.5C 128.539,193.583 128.873,194.583 129.5,195.5C 131.918,196.457 134.084,197.791 136,199.5C 136.667,230.5 136.667,261.5 136,292.5C 134.434,293.061 133.101,292.394 132,290.5C 131.517,291.448 131.351,292.448 131.5,293.5C 129.833,293.5 128.167,293.5 126.5,293.5C 122.68,290.53 118.68,287.696 114.5,285C 112.091,283.293 109.425,282.46 106.5,282.5C 105.833,282.5 105.167,282.5 104.5,282.5C 101.313,279.885 97.98,277.552 94.5,275.5C 93.7659,274.292 93.4326,272.959 93.5,271.5C 90.5,271.833 89.1667,270.5 89.5,267.5C 86.1401,267.384 82.8067,267.051 79.5,266.5C 79.5,265.5 79.5,264.5 79.5,263.5C 75.4976,261.481 71.4976,259.481 67.5,257.5C 64.8785,256.048 63.2118,253.881 62.5,251C 61.552,250.517 60.552,250.351 59.5,250.5C 58.8333,245.167 58.1667,245.167 57.5,250.5C 55.7839,250.371 54.1172,250.038 52.5,249.5C 50.5178,216.056 49.8511,182.389 50.5,148.5C 51.5,148.5 52.5,148.5 53.5,148.5 Z"/></g>
<g><path style="opacity:1" fill="#b48b01" d="M 243.5,143.5 C 244.167,143.5 244.833,143.5 245.5,143.5C 246.833,160.654 247.5,178.154 247.5,196C 247.333,213.5 247.167,231 247,248.5C 243.732,250.526 240.232,252.026 236.5,253C 233.921,254.076 232.254,255.909 231.5,258.5C 229.924,259.143 228.59,260.143 227.5,261.5C 224.995,263.715 221.995,264.881 218.5,265C 215.598,267.417 212.598,269.584 209.5,271.5C 207.236,272.219 204.903,272.552 202.5,272.5C 202.608,274.514 201.942,276.18 200.5,277.5C 198.486,277.392 196.82,278.058 195.5,279.5C 191.347,281.291 187.014,282.624 182.5,283.5C 182.5,284.833 182.5,286.167 182.5,287.5C 178.998,287.076 176.665,288.41 175.5,291.5C 173.5,293.167 171.5,294.833 169.5,296.5C 166.447,296.572 163.781,297.572 161.5,299.5C 157.805,299.492 154.805,300.826 152.5,303.5C 151.333,270.838 151.167,238.172 152,205.5C 152.097,202.518 152.93,199.851 154.5,197.5C 156.853,196.66 158.853,195.326 160.5,193.5C 162.482,193.005 164.482,192.505 166.5,192C 170.616,189.714 174.283,186.88 177.5,183.5C 185.021,179.254 192.687,175.088 200.5,171C 204.766,168.776 208.432,165.943 211.5,162.5C 212.687,160.025 214.687,159.025 217.5,159.5C 219.853,158.66 221.853,157.326 223.5,155.5C 231.128,153.023 237.794,149.023 243.5,143.5 Z"/></g>
<g><path style="opacity:1" fill="#828634" d="M 241.5,143.5 C 242.167,143.5 242.833,143.5 243.5,143.5C 237.794,149.023 231.128,153.023 223.5,155.5C 229.839,151.998 235.839,147.998 241.5,143.5 Z"/></g>
<g><path style="opacity:1" fill="#72813f" d="M 223.5,155.5 C 221.853,157.326 219.853,158.66 217.5,159.5C 218.733,157.204 220.733,155.87 223.5,155.5 Z"/></g>
<g><path style="opacity:1" fill="#4c7958" d="M 203.5,166.5 C 199.435,169.531 195.102,172.197 190.5,174.5C 194.02,170.743 198.353,168.076 203.5,166.5 Z"/></g>
<g><path style="opacity:1" fill="#828533" d="M 211.5,162.5 C 208.432,165.943 204.766,168.776 200.5,171C 192.687,175.088 185.021,179.254 177.5,183.5C 179.131,181.357 181.131,179.69 183.5,178.5C 185.738,176.884 188.071,175.551 190.5,174.5C 195.102,172.197 199.435,169.531 203.5,166.5C 205.789,164.613 208.455,163.279 211.5,162.5 Z"/></g>
<g><path style="opacity:1" fill="#237385" d="M 235.5,133.5 C 237.716,134.203 239.549,135.536 241,137.5C 242.813,136.391 243.646,137.058 243.5,139.5C 244.5,139.5 245.5,139.5 246.5,139.5C 244.338,140.128 242.672,141.461 241.5,143.5C 235.839,147.998 229.839,151.998 223.5,155.5C 220.733,155.87 218.733,157.204 217.5,159.5C 214.687,159.025 212.687,160.025 211.5,162.5C 208.455,163.279 205.789,164.613 203.5,166.5C 198.353,168.076 194.02,170.743 190.5,174.5C 188.071,175.551 185.738,176.884 183.5,178.5C 176.234,180.131 170.234,183.798 165.5,189.5C 163.449,190.487 161.782,191.82 160.5,193.5C 157.148,193.53 154.482,194.863 152.5,197.5C 151.417,197.539 150.417,197.873 149.5,198.5C 148.5,234.827 148.167,271.161 148.5,307.5C 147.305,307.134 146.639,306.301 146.5,305C 146.994,303.538 147.327,302.038 147.5,300.5C 146.688,267.516 146.188,234.516 146,201.5C 144.89,199.963 143.39,199.297 141.5,199.5C 140.514,196.24 138.181,194.573 134.5,194.5C 132.212,191.544 129.212,189.877 125.5,189.5C 124.508,189.672 123.842,189.338 123.5,188.5C 121.615,186.947 120.615,184.947 120.5,182.5C 116.173,181.332 111.84,179.999 107.5,178.5C 105.152,178.408 103.486,177.408 102.5,175.5C 100.252,172.607 97.2515,170.94 93.5,170.5C 87.9283,165.547 81.595,161.88 74.5,159.5C 69.3293,156.538 63.9959,153.871 58.5,151.5C 58.1667,150.5 57.5,149.833 56.5,149.5C 55.4154,147.413 53.7488,146.08 51.5,145.5C 50.4324,144.566 49.099,144.232 47.5,144.5C 47.5,178.833 47.5,213.167 47.5,247.5C 46.7037,212.997 46.037,178.33 45.5,143.5C 41.6768,143.833 40.1768,142.166 41,138.5C 44.4509,136.83 46.9509,137.83 48.5,141.5C 49.4287,140.311 49.762,138.978 49.5,137.5C 52.8641,139.384 56.1975,141.551 59.5,144C 62.295,145.732 65.295,146.899 68.5,147.5C 72.5827,148.709 76.2493,150.709 79.5,153.5C 82.5347,155.017 85.2013,157.183 87.5,160C 89.743,161.136 92.0763,161.97 94.5,162.5C 95.4312,164.022 96.5979,165.355 98,166.5C 104.273,169.719 110.44,173.052 116.5,176.5C 118.216,176.629 119.883,176.962 121.5,177.5C 124.036,180.744 127.369,182.744 131.5,183.5C 132.625,185.129 133.959,186.629 135.5,188C 138.611,188.444 141.277,189.777 143.5,192C 148.084,193.337 151.751,192.171 154.5,188.5C 157.612,185.554 161.279,183.72 165.5,183C 168.962,180.585 172.295,178.085 175.5,175.5C 178.448,173.638 181.448,171.971 184.5,170.5C 189.506,167.333 194.84,164.833 200.5,163C 201.71,161.961 202.71,160.794 203.5,159.5C 208.207,156.816 212.873,154.149 217.5,151.5C 224.979,148.217 232.146,144.217 239,139.5C 239.667,138.833 239.667,138.167 239,137.5C 237.624,136.295 236.458,134.962 235.5,133.5 Z"/></g>
<g><path style="opacity:1" fill="#597d59" d="M 203.5,159.5 C 202.71,160.794 201.71,161.961 200.5,163C 194.84,164.833 189.506,167.333 184.5,170.5C 186.647,168.53 188.98,166.697 191.5,165C 195.692,163.462 199.692,161.628 203.5,159.5 Z"/></g>
<g><path style="opacity:1" fill="#3f7866" d="M 94.5,162.5 C 100.33,165.247 105.996,168.247 111.5,171.5C 113.36,172.939 115.027,174.605 116.5,176.5C 110.44,173.052 104.273,169.719 98,166.5C 96.5979,165.355 95.4312,164.022 94.5,162.5 Z"/></g>
<g><path style="opacity:1" fill="#557b57" d="M 74.5,159.5 C 81.595,161.88 87.9283,165.547 93.5,170.5C 92.1266,170.657 90.7932,170.49 89.5,170C 88.1537,168.331 86.487,167.164 84.5,166.5C 81.128,164.164 77.7946,161.83 74.5,159.5 Z"/></g>
<g><path style="opacity:1" fill="#537a59" d="M 79.5,153.5 C 80.8734,153.343 82.2068,153.51 83.5,154C 86.5607,157.813 90.2274,160.647 94.5,162.5C 92.0763,161.97 89.743,161.136 87.5,160C 85.2013,157.183 82.5347,155.017 79.5,153.5 Z"/></g>
<g><path style="opacity:1" fill="#9b8923" d="M 58.5,151.5 C 63.9959,153.871 69.3293,156.538 74.5,159.5C 77.7946,161.83 81.128,164.164 84.5,166.5C 79.377,164.775 74.377,162.442 69.5,159.5C 69.1667,158.833 68.8333,158.167 68.5,157.5C 64.4304,156.476 61.0971,154.476 58.5,151.5 Z"/></g>
<g><path style="opacity:1" fill="#6a804b" d="M 217.5,151.5 C 212.873,154.149 208.207,156.816 203.5,159.5C 204.833,158.167 206.167,156.833 207.5,155.5C 210.374,153.065 213.707,151.731 217.5,151.5 Z"/></g>
<g><path style="opacity:1" fill="#78843c" d="M 51.5,145.5 C 53.7488,146.08 55.4154,147.413 56.5,149.5C 55.391,149.443 54.391,149.11 53.5,148.5C 52.713,146.896 51.3797,146.229 49.5,146.5C 49.5,180.167 49.5,213.833 49.5,247.5C 49.1667,247.5 48.8333,247.5 48.5,247.5C 48.5,213.5 48.5,179.5 48.5,145.5C 49.5,145.5 50.5,145.5 51.5,145.5 Z"/></g>
<g><path style="opacity:1" fill="#4f7a59" d="M 93.5,170.5 C 97.2515,170.94 100.252,172.607 102.5,175.5C 101.833,175.5 101.167,175.5 100.5,175.5C 97.6298,174.567 95.2964,172.9 93.5,170.5 Z"/></g>
<g><path style="opacity:1" fill="#978921" d="M 138.5,187.5 C 136.167,186.167 133.833,184.833 131.5,183.5C 127.369,182.744 124.036,180.744 121.5,177.5C 119.029,176.264 117.029,174.431 115.5,172C 114.207,171.51 112.873,171.343 111.5,171.5C 105.996,168.247 100.33,165.247 94.5,162.5C 90.2274,160.647 86.5607,157.813 83.5,154C 82.2068,153.51 80.8734,153.343 79.5,153.5C 76.2493,150.709 72.5827,148.709 68.5,147.5C 65.311,144.658 61.9777,141.991 58.5,139.5C 59.8221,139.67 60.9887,139.337 62,138.5C 66.3315,144.344 72.1648,147.677 79.5,148.5C 79.5,149.833 79.5,151.167 79.5,152.5C 81.1992,152.34 82.8659,152.506 84.5,153C 86.8648,156.714 90.1981,158.714 94.5,159C 95.9784,161.057 97.9784,162.39 100.5,163C 102.108,163.658 103.275,163.158 104,161.5C 104.739,163.221 105.573,164.887 106.5,166.5C 108.517,167.174 110.183,168.341 111.5,170C 115.878,170.715 119.545,172.715 122.5,176C 129.391,177.733 134.725,181.566 138.5,187.5 Z"/></g>
<g><path style="opacity:1" fill="#77823d" d="M 111.5,171.5 C 112.873,171.343 114.207,171.51 115.5,172C 117.029,174.431 119.029,176.264 121.5,177.5C 119.883,176.962 118.216,176.629 116.5,176.5C 115.027,174.605 113.36,172.939 111.5,171.5 Z"/></g>
<g><path style="opacity:1" fill="#928826" d="M 207.5,155.5 C 206.167,156.833 204.833,158.167 203.5,159.5C 199.692,161.628 195.692,163.462 191.5,165C 188.98,166.697 186.647,168.53 184.5,170.5C 181.448,171.971 178.448,173.638 175.5,175.5C 167.09,178.538 159.423,182.871 152.5,188.5C 149.436,190.343 146.103,190.843 142.5,190C 141.619,189.292 140.953,188.458 140.5,187.5C 147.54,189.893 152.707,187.893 156,181.5C 156.333,181.833 156.667,182.167 157,182.5C 163.147,179.702 169.314,176.869 175.5,174C 181.979,166.759 189.979,162.093 199.5,160C 201.194,156.922 203.861,155.422 207.5,155.5 Z"/></g>
<g><path style="opacity:1" fill="#8a882d" d="M 100.5,175.5 C 101.167,175.5 101.833,175.5 102.5,175.5C 103.486,177.408 105.152,178.408 107.5,178.5C 107.414,179.496 107.748,180.329 108.5,181C 110.653,181.099 112.319,181.933 113.5,183.5C 108.027,182.601 103.693,179.934 100.5,175.5 Z"/></g>
<g><path style="opacity:1" fill="#548063" d="M 250.5,136.5 C 250.5,137.833 250.5,139.167 250.5,140.5C 250.667,176.835 250.5,213.168 250,249.5C 248.89,251.037 247.39,251.703 245.5,251.5C 246.694,250.728 247.694,249.728 248.5,248.5C 249.498,213.004 249.832,177.337 249.5,141.5C 246.99,141.054 244.99,141.72 243.5,143.5C 242.833,143.5 242.167,143.5 241.5,143.5C 242.672,141.461 244.338,140.128 246.5,139.5C 247.833,138.5 249.167,137.5 250.5,136.5 Z"/></g>
<g><path style="opacity:1" fill="#6c7f48" d="M 175.5,175.5 C 172.295,178.085 168.962,180.585 165.5,183C 161.279,183.72 157.612,185.554 154.5,188.5C 153.833,188.5 153.167,188.5 152.5,188.5C 159.423,182.871 167.09,178.538 175.5,175.5 Z"/></g>
<g><path style="opacity:1" fill="#3a756e" d="M 107.5,178.5 C 111.84,179.999 116.173,181.332 120.5,182.5C 120.615,184.947 121.615,186.947 123.5,188.5C 120.377,186.456 117.044,184.789 113.5,183.5C 112.319,181.933 110.653,181.099 108.5,181C 107.748,180.329 107.414,179.496 107.5,178.5 Z"/></g>
<g><path style="opacity:1" fill="#427664" d="M 183.5,178.5 C 181.131,179.69 179.131,181.357 177.5,183.5C 173.275,185.061 169.275,187.061 165.5,189.5C 170.234,183.798 176.234,180.131 183.5,178.5 Z"/></g>
<g><path style="opacity:1" fill="#89882c" d="M 113.5,183.5 C 117.044,184.789 120.377,186.456 123.5,188.5C 123.842,189.338 124.508,189.672 125.5,189.5C 125.833,190.167 126.167,190.833 126.5,191.5C 122.402,190.615 118.736,188.948 115.5,186.5C 114.807,185.482 114.141,184.482 113.5,183.5 Z"/></g>
<g><path style="opacity:1" fill="#487762" d="M 125.5,189.5 C 129.212,189.877 132.212,191.544 134.5,194.5C 132.142,194.747 130.142,194.081 128.5,192.5C 127.833,192.167 127.167,191.833 126.5,191.5C 126.167,190.833 125.833,190.167 125.5,189.5 Z"/></g>
<g><path style="opacity:1" fill="#918829" d="M 177.5,183.5 C 174.283,186.88 170.616,189.714 166.5,192C 164.482,192.505 162.482,193.005 160.5,193.5C 161.782,191.82 163.449,190.487 165.5,189.5C 169.275,187.061 173.275,185.061 177.5,183.5 Z"/></g>
<g><path style="opacity:1" fill="#4b7863" d="M 131.5,183.5 C 133.833,184.833 136.167,186.167 138.5,187.5C 139.167,187.5 139.833,187.5 140.5,187.5C 140.953,188.458 141.619,189.292 142.5,190C 146.103,190.843 149.436,190.343 152.5,188.5C 153.167,188.5 153.833,188.5 154.5,188.5C 151.751,192.171 148.084,193.337 143.5,192C 141.277,189.777 138.611,188.444 135.5,188C 133.959,186.629 132.625,185.129 131.5,183.5 Z"/></g>
<g><path style="opacity:1" fill="#4f7959" d="M 51.5,145.5 C 50.5,145.5 49.5,145.5 48.5,145.5C 48.5,179.5 48.5,213.5 48.5,247.5C 48.1667,247.5 47.8333,247.5 47.5,247.5C 47.5,213.167 47.5,178.833 47.5,144.5C 49.099,144.232 50.4324,144.566 51.5,145.5 Z"/></g>
<g><path style="opacity:1" fill="#77853c" d="M 160.5,193.5 C 158.853,195.326 156.853,196.66 154.5,197.5C 153.833,197.5 153.167,197.5 152.5,197.5C 154.482,194.863 157.148,193.53 160.5,193.5 Z"/></g>
<g><path style="opacity:0.412" fill="#0e3a4b" d="M 253.5,143.5 C 254.421,178.885 255.254,214.219 256,249.5C 258.983,250.998 261.816,252.665 264.5,254.5C 261.016,253.437 257.516,252.437 254,251.5C 253.5,215.502 253.333,179.502 253.5,143.5 Z"/></g>
<g><path style="opacity:1" fill="#998b1f" d="M 53.5,148.5 C 52.5,148.5 51.5,148.5 50.5,148.5C 49.8511,182.389 50.5178,216.056 52.5,249.5C 51.8333,249.5 51.1667,249.5 50.5,249.5C 50.1667,249.5 49.8333,249.5 49.5,249.5C 49.5,248.833 49.5,248.167 49.5,247.5C 49.5,213.833 49.5,180.167 49.5,146.5C 51.3797,146.229 52.713,146.896 53.5,148.5 Z"/></g>
<g><path style="opacity:0.982" fill="#175972" d="M 39.5,129.5 C 39.7267,175.724 39.3934,222.057 38.5,268.5C 37.5084,261.352 37.175,254.019 37.5,246.5C 38.047,208.002 38.047,169.336 37.5,130.5C 37.8417,129.662 38.5084,129.328 39.5,129.5 Z"/></g>
<g><path style="opacity:1" fill="#8b8726" d="M 245.5,143.5 C 246.209,142.596 247.209,142.263 248.5,142.5C 248.5,177.833 248.5,213.167 248.5,248.5C 247.694,249.728 246.694,250.728 245.5,251.5C 240.747,252.731 236.747,255.064 233.5,258.5C 232.833,258.5 232.167,258.5 231.5,258.5C 232.254,255.909 233.921,254.076 236.5,253C 240.232,252.026 243.732,250.526 247,248.5C 247.167,231 247.333,213.5 247.5,196C 247.5,178.154 246.833,160.654 245.5,143.5 Z"/></g>
<g><path style="opacity:1" fill="#6d813f" d="M 248.5,248.5 C 248.5,213.167 248.5,177.833 248.5,142.5C 247.209,142.263 246.209,142.596 245.5,143.5C 244.833,143.5 244.167,143.5 243.5,143.5C 244.99,141.72 246.99,141.054 249.5,141.5C 249.832,177.337 249.498,213.004 248.5,248.5 Z"/></g>
<g><path style="opacity:0.384" fill="#08303e" d="M 37.5,130.5 C 38.047,169.336 38.047,208.002 37.5,246.5C 36.6913,207.883 36.6913,169.216 37.5,130.5 Z"/></g>
<g><path style="opacity:1" fill="#17728e" d="M 139.5,79.5 C 139.5,81.1667 139.5,82.8333 139.5,84.5C 135.825,84.5003 133.159,86.167 131.5,89.5C 131.167,89.5 130.833,89.5 130.5,89.5C 127.873,90.0916 125.206,90.4249 122.5,90.5C 122.649,91.552 122.483,92.552 122,93.5C 117.05,96.728 111.55,98.228 105.5,98C 106.517,99.0495 106.684,100.216 106,101.5C 104.491,102.09 102.991,102.756 101.5,103.5C 99.1244,105.209 97.1244,107.209 95.5,109.5C 91.5542,112.385 87.2208,114.718 82.5,116.5C 75.1756,118.566 68.8423,122.232 63.5,127.5C 61.3374,129.083 59.0041,130.416 56.5,131.5C 51.6606,130.677 49.3272,132.677 49.5,137.5C 49.762,138.978 49.4287,140.311 48.5,141.5C 46.9509,137.83 44.4509,136.83 41,138.5C 40.1768,142.166 41.6768,143.833 45.5,143.5C 46.037,178.33 46.7037,212.997 47.5,247.5C 47.8333,247.5 48.1667,247.5 48.5,247.5C 48.8333,247.5 49.1667,247.5 49.5,247.5C 49.5,248.167 49.5,248.833 49.5,249.5C 49.5,252.167 49.5,254.833 49.5,257.5C 48.1779,257.67 47.0113,257.337 46,256.5C 45.8706,289 46.3706,321.334 47.5,353.5C 47.3259,355.861 46.9926,358.194 46.5,360.5C 44.6203,360.229 43.287,360.896 42.5,362.5C 41.5,362.5 40.5,362.5 39.5,362.5C 39.8291,348.323 39.4958,334.323 38.5,320.5C 38.5,303.167 38.5,285.833 38.5,268.5C 39.3934,222.057 39.7267,175.724 39.5,129.5C 45.4409,130.688 50.1075,128.855 53.5,124C 58.3031,121.536 63.3031,119.536 68.5,118C 67.2889,116.887 67.2889,115.72 68.5,114.5C 70.5212,113.145 72.1879,111.479 73.5,109.5C 84.061,105.444 94.061,100.277 103.5,94C 104.793,93.51 106.127,93.3433 107.5,93.5C 112.516,90.4295 117.516,87.2628 122.5,84C 126.542,81.7261 130.875,80.5594 135.5,80.5C 135.281,79.325 135.614,78.325 136.5,77.5C 137.518,78.1925 138.518,78.8592 139.5,79.5 Z"/></g>
<g><path style="opacity:1" fill="#3e7667" d="M 134.5,194.5 C 138.181,194.573 140.514,196.24 141.5,199.5C 140.833,233.5 140.167,267.5 139.5,301.5C 139.832,266.663 139.498,231.996 138.5,197.5C 136.596,197.262 135.262,196.262 134.5,194.5 Z"/></g>
<g><path style="opacity:1" fill="#9e8a1b" d="M 152.5,197.5 C 153.167,197.5 153.833,197.5 154.5,197.5C 152.93,199.851 152.097,202.518 152,205.5C 151.167,238.172 151.333,270.838 152.5,303.5C 154.805,300.826 157.805,299.492 161.5,299.5C 159.191,301.987 156.524,303.987 153.5,305.5C 152.504,305.586 151.671,305.252 151,304.5C 150.5,269.502 150.333,234.502 150.5,199.5C 151.5,199.167 152.167,198.5 152.5,197.5 Z"/></g>
<g><path style="opacity:1" fill="#a58b14" d="M 128.5,192.5 C 130.142,194.081 132.142,194.747 134.5,194.5C 135.262,196.262 136.596,197.262 138.5,197.5C 138.5,231.5 138.5,265.5 138.5,299.5C 135.892,299.6 133.558,298.933 131.5,297.5C 129.833,296.167 128.167,294.833 126.5,293.5C 128.167,293.5 129.833,293.5 131.5,293.5C 131.351,292.448 131.517,291.448 132,290.5C 133.101,292.394 134.434,293.061 136,292.5C 136.667,261.5 136.667,230.5 136,199.5C 134.084,197.791 131.918,196.457 129.5,195.5C 128.873,194.583 128.539,193.583 128.5,192.5 Z"/></g>
<g><path style="opacity:1" fill="#9c8921" d="M 79.5,266.5 C 76.0434,265.606 73.0434,263.94 70.5,261.5C 67.7799,259.473 64.7799,257.807 61.5,256.5C 59.5956,256.262 58.2623,255.262 57.5,253.5C 55.8333,252.167 54.1667,250.833 52.5,249.5C 54.1172,250.038 55.7839,250.371 57.5,250.5C 58.1667,245.167 58.8333,245.167 59.5,250.5C 60.552,250.351 61.552,250.517 62.5,251C 63.2118,253.881 64.8785,256.048 67.5,257.5C 71.4976,259.481 75.4976,261.481 79.5,263.5C 79.5,264.5 79.5,265.5 79.5,266.5 Z"/></g>
<g><path style="opacity:1" fill="#577b54" d="M 50.5,249.5 C 51.1667,249.5 51.8333,249.5 52.5,249.5C 54.1667,250.833 55.8333,252.167 57.5,253.5C 54.1884,253.851 51.855,252.518 50.5,249.5 Z"/></g>
<g><path style="opacity:1" fill="#4d7a57" d="M 61.5,256.5 C 64.7799,257.807 67.7799,259.473 70.5,261.5C 66.3477,261.597 63.3477,259.931 61.5,256.5 Z"/></g>
<g><path style="opacity:1" fill="#547952" d="M 231.5,258.5 C 232.167,258.5 232.833,258.5 233.5,258.5C 231.967,260.245 229.967,261.245 227.5,261.5C 228.59,260.143 229.924,259.143 231.5,258.5 Z"/></g>
<g><path style="opacity:1" fill="#b38b02" d="M 251.5,259.5 C 254.082,261.742 257.082,263.076 260.5,263.5C 263.678,266.258 267.345,268.258 271.5,269.5C 273.849,271.341 276.515,272.674 279.5,273.5C 281.53,276.182 284.197,277.849 287.5,278.5C 290.614,280.542 293.948,282.209 297.5,283.5C 301.176,284.985 304.509,287.152 307.5,290C 313.304,292.212 318.971,294.712 324.5,297.5C 326.315,300.407 328.981,301.741 332.5,301.5C 334.969,302.908 337.303,304.575 339.5,306.5C 340.315,307.837 341.482,308.837 343,309.5C 343.798,311.259 343.631,312.926 342.5,314.5C 338.459,316.898 334.459,319.232 330.5,321.5C 324.3,323.553 318.967,326.886 314.5,331.5C 311.487,331.581 309.487,332.914 308.5,335.5C 306.302,335.12 304.635,335.787 303.5,337.5C 300.236,338.324 296.902,338.658 293.5,338.5C 293.762,339.978 293.429,341.311 292.5,342.5C 290.402,342.957 288.736,343.957 287.5,345.5C 282.521,348.803 277.521,352.136 272.5,355.5C 272.167,355.5 271.833,355.5 271.5,355.5C 269.436,355.687 267.436,356.187 265.5,357C 261.875,360.474 257.875,363.307 253.5,365.5C 251.05,365.702 248.717,365.369 246.5,364.5C 245.055,362.937 243.389,361.604 241.5,360.5C 241.047,359.542 240.381,358.708 239.5,358C 235.338,356.781 231.338,355.281 227.5,353.5C 227.167,353.5 226.833,353.5 226.5,353.5C 222.726,349.279 218.059,346.613 212.5,345.5C 212.167,345.5 211.833,345.5 211.5,345.5C 206.055,340.907 200.389,336.407 194.5,332C 189.17,331.388 184.17,329.888 179.5,327.5C 175.365,324.931 171.032,322.597 166.5,320.5C 164.236,318.686 161.903,316.853 159.5,315C 160.938,314.781 162.271,314.281 163.5,313.5C 166.2,310.827 168.867,308.16 171.5,305.5C 173.189,304.069 175.189,303.236 177.5,303C 182.042,299.934 186.375,296.768 190.5,293.5C 192.652,291.015 195.319,289.349 198.5,288.5C 200.179,288.108 201.846,287.608 203.5,287C 206.571,284.482 209.571,281.982 212.5,279.5C 216.637,278.793 219.97,276.793 222.5,273.5C 223.635,271.787 225.302,271.12 227.5,271.5C 230.817,270.695 233.483,268.861 235.5,266C 239.849,265.332 243.516,263.332 246.5,260C 248.134,259.506 249.801,259.34 251.5,259.5 Z"/></g>
<g><path style="opacity:1" fill="#217083" d="M 250.5,140.5 C 250.833,140.5 251.167,140.5 251.5,140.5C 253.048,140.821 253.715,141.821 253.5,143.5C 253.333,179.502 253.5,215.502 254,251.5C 257.516,252.437 261.016,253.437 264.5,254.5C 268.183,255.675 271.516,257.341 274.5,259.5C 274.937,261.074 275.937,262.241 277.5,263C 283.822,265.826 289.822,269.159 295.5,273C 296.793,273.49 298.127,273.657 299.5,273.5C 301.081,275.142 301.747,277.142 301.5,279.5C 300.5,279.5 299.5,279.5 298.5,279.5C 298.5,280.5 298.5,281.5 298.5,282.5C 300.488,282.173 302.488,281.84 304.5,281.5C 306.876,282.226 308.876,283.559 310.5,285.5C 311.167,285.167 311.833,284.833 312.5,284.5C 317.434,285.969 322.1,287.969 326.5,290.5C 324.516,291.619 322.683,291.286 321,289.5C 320.5,289.833 320,290.167 319.5,290.5C 320.167,291.167 320.833,291.833 321.5,292.5C 317.564,293.61 314.897,292.11 313.5,288C 307.927,287.025 302.593,285.525 297.5,283.5C 295.017,280.259 291.684,278.592 287.5,278.5C 285.311,276.1 282.644,274.433 279.5,273.5C 276.515,272.674 273.849,271.341 271.5,269.5C 269.669,267.224 267.336,265.391 264.5,264C 263.207,263.51 261.873,263.343 260.5,263.5C 258.38,260.531 255.38,259.198 251.5,259.5C 249.307,258.203 246.973,258.203 244.5,259.5C 241.57,261.899 238.237,263.732 234.5,265C 232.264,267.343 229.931,269.51 227.5,271.5C 225.302,271.12 223.635,271.787 222.5,273.5C 218.575,274.579 215.242,276.579 212.5,279.5C 210.716,279.893 209.05,280.559 207.5,281.5C 201.771,284.026 196.104,286.859 190.5,290C 189.695,291.113 189.028,292.279 188.5,293.5C 184.513,295.285 180.846,297.785 177.5,301C 175.564,301.813 173.564,302.313 171.5,302.5C 170.022,302.238 168.689,302.571 167.5,303.5C 163.326,305.99 159.326,308.656 155.5,311.5C 153.952,311.179 153.285,310.179 153.5,308.5C 153.5,307.833 153.5,307.167 153.5,306.5C 160.109,305.228 165.442,301.894 169.5,296.5C 172.704,295.617 175.371,293.95 177.5,291.5C 182.084,288.869 186.751,286.202 191.5,283.5C 192.552,283.649 193.552,283.483 194.5,283C 196.614,280.72 198.947,278.887 201.5,277.5C 202.605,276.4 203.938,275.733 205.5,275.5C 206.922,275.291 208.255,274.791 209.5,274C 214.382,268.773 220.382,265.607 227.5,264.5C 227.5,263.5 227.5,262.5 227.5,261.5C 229.967,261.245 231.967,260.245 233.5,258.5C 236.747,255.064 240.747,252.731 245.5,251.5C 247.39,251.703 248.89,251.037 250,249.5C 250.5,213.168 250.667,176.835 250.5,140.5 Z"/></g>
<g><path style="opacity:1" fill="#405839" d="M 251.5,259.5 C 255.38,259.198 258.38,260.531 260.5,263.5C 257.082,263.076 254.082,261.742 251.5,259.5 Z"/></g>
<g><path style="opacity:1" fill="#758141" d="M 251.5,259.5 C 249.801,259.34 248.134,259.506 246.5,260C 243.516,263.332 239.849,265.332 235.5,266C 233.483,268.861 230.817,270.695 227.5,271.5C 229.931,269.51 232.264,267.343 234.5,265C 238.237,263.732 241.57,261.899 244.5,259.5C 246.973,258.203 249.307,258.203 251.5,259.5 Z"/></g>
<g><path style="opacity:1" fill="#355a43" d="M 260.5,263.5 C 261.873,263.343 263.207,263.51 264.5,264C 267.336,265.391 269.669,267.224 271.5,269.5C 267.345,268.258 263.678,266.258 260.5,263.5 Z"/></g>
<g><path style="opacity:1" fill="#968a22" d="M 79.5,266.5 C 82.8067,267.051 86.1401,267.384 89.5,267.5C 89.1667,270.5 90.5,271.833 93.5,271.5C 93.4326,272.959 93.7659,274.292 94.5,275.5C 89.2329,272.89 84.2329,269.89 79.5,266.5 Z"/></g>
<g><path style="opacity:0.694" fill="#123e52" d="M 274.5,259.5 C 283.353,263.422 291.687,268.089 299.5,273.5C 298.127,273.657 296.793,273.49 295.5,273C 289.822,269.159 283.822,265.826 277.5,263C 275.937,262.241 274.937,261.074 274.5,259.5 Z"/></g>
<g><path style="opacity:1" fill="#597c53" d="M 227.5,261.5 C 227.5,262.5 227.5,263.5 227.5,264.5C 220.382,265.607 214.382,268.773 209.5,274C 208.255,274.791 206.922,275.291 205.5,275.5C 206.625,274 207.959,272.667 209.5,271.5C 212.598,269.584 215.598,267.417 218.5,265C 221.995,264.881 224.995,263.715 227.5,261.5 Z"/></g>
<g><path style="opacity:1" fill="#b38b02" d="M 54.5,265.5 C 55.1667,265.5 55.8333,265.5 56.5,265.5C 57.552,265.351 58.552,265.517 59.5,266C 61.8569,269.677 65.1902,271.511 69.5,271.5C 71.3492,272.593 73.0158,273.926 74.5,275.5C 76.5664,277.199 78.8997,278.532 81.5,279.5C 82.6801,281.014 83.6801,282.681 84.5,284.5C 85.7362,285.246 87.0695,285.579 88.5,285.5C 93.0274,287.194 97.3607,289.194 101.5,291.5C 103.463,292.82 105.463,294.154 107.5,295.5C 110.147,297.811 112.814,300.144 115.5,302.5C 118.99,304.683 122.657,306.35 126.5,307.5C 127.391,308.11 128.391,308.443 129.5,308.5C 131.513,310.497 133.846,312.164 136.5,313.5C 137.429,314.689 137.762,316.022 137.5,317.5C 137.5,351.167 137.5,384.833 137.5,418.5C 135.784,418.371 134.117,418.038 132.5,417.5C 131.833,417.5 131.167,417.5 130.5,417.5C 128.313,416.242 125.98,415.242 123.5,414.5C 119.584,409.592 114.584,406.258 108.5,404.5C 108.137,403.817 107.804,403.15 107.5,402.5C 105.199,400.34 102.866,398.174 100.5,396C 96.421,395.927 93.0877,394.427 90.5,391.5C 89.3112,390.571 87.9778,390.238 86.5,390.5C 80.1863,386.34 73.5196,382.673 66.5,379.5C 65.8333,379.5 65.1667,379.5 64.5,379.5C 63.3524,377.245 61.6857,375.412 59.5,374C 55.0769,372.482 51.0769,370.315 47.5,367.5C 44.6729,364.76 45.3396,363.093 49.5,362.5C 50.1174,362.389 50.6174,362.056 51,361.5C 51.3148,329.499 51.1482,297.499 50.5,265.5C 51.8333,265.5 53.1667,265.5 54.5,265.5 Z"/></g>
<g><path style="opacity:1" fill="#76833a" d="M 138.5,197.5 C 139.498,231.996 139.832,266.663 139.5,301.5C 135.74,302.226 133.073,300.893 131.5,297.5C 133.558,298.933 135.892,299.6 138.5,299.5C 138.5,265.5 138.5,231.5 138.5,197.5 Z"/></g>
<g><path style="opacity:1" fill="#8b882d" d="M 209.5,271.5 C 207.959,272.667 206.625,274 205.5,275.5C 203.938,275.733 202.605,276.4 201.5,277.5C 201.167,277.5 200.833,277.5 200.5,277.5C 201.942,276.18 202.608,274.514 202.5,272.5C 204.903,272.552 207.236,272.219 209.5,271.5 Z"/></g>
<g><path style="opacity:1" fill="#4c6134" d="M 279.5,273.5 C 282.644,274.433 285.311,276.1 287.5,278.5C 284.197,277.849 281.53,276.182 279.5,273.5 Z"/></g>
<g><path style="opacity:1" fill="#267384" d="M 49.5,249.5 C 49.8333,249.5 50.1667,249.5 50.5,249.5C 51.855,252.518 54.1884,253.851 57.5,253.5C 58.2623,255.262 59.5956,256.262 61.5,256.5C 63.3477,259.931 66.3477,261.597 70.5,261.5C 73.0434,263.94 76.0434,265.606 79.5,266.5C 84.2329,269.89 89.2329,272.89 94.5,275.5C 97.98,277.552 101.313,279.885 104.5,282.5C 104.5,283.167 104.5,283.833 104.5,284.5C 102.176,284.338 100.509,283.172 99.5,281C 98.0563,280.219 96.723,280.386 95.5,281.5C 98.7795,284.277 101.946,287.277 105,290.5C 106.578,289.453 108.078,289.453 109.5,290.5C 108.624,291.251 107.624,291.751 106.5,292C 108.618,293.049 110.284,294.549 111.5,296.5C 110.167,296.167 108.833,295.833 107.5,295.5C 105.463,294.154 103.463,292.82 101.5,291.5C 97.8958,287.733 93.5625,285.066 88.5,283.5C 86.4336,281.801 84.1003,280.468 81.5,279.5C 79.8791,277.058 77.5458,275.725 74.5,275.5C 73.0158,273.926 71.3492,272.593 69.5,271.5C 66.3864,269.607 63.3864,267.441 60.5,265C 58.8455,264.392 57.1789,263.892 55.5,263.5C 54.1283,262.488 52.795,261.488 51.5,260.5C 50.4324,259.566 49.099,259.232 47.5,259.5C 47.5,290.833 47.5,322.167 47.5,353.5C 46.3706,321.334 45.8706,289 46,256.5C 47.0113,257.337 48.1779,257.67 49.5,257.5C 49.5,254.833 49.5,252.167 49.5,249.5 Z"/></g>
<g><path style="opacity:1" fill="#5c7f4e" d="M 74.5,275.5 C 77.5458,275.725 79.8791,277.058 81.5,279.5C 78.8997,278.532 76.5664,277.199 74.5,275.5 Z"/></g>
<g><path style="opacity:1" fill="#577c54" d="M 55.5,263.5 C 57.1789,263.892 58.8455,264.392 60.5,265C 63.3864,267.441 66.3864,269.607 69.5,271.5C 65.1902,271.511 61.8569,269.677 59.5,266C 58.552,265.517 57.552,265.351 56.5,265.5C 56.1667,264.833 55.8333,264.167 55.5,263.5 Z"/></g>
<g><path style="opacity:0.643" fill="#0a3847" d="M 37.5,246.5 C 37.175,254.019 37.5084,261.352 38.5,268.5C 38.5,285.833 38.5,303.167 38.5,320.5C 38.8264,329.349 38.493,338.016 37.5,346.5C 36.6637,313 36.6637,279.666 37.5,246.5 Z"/></g>
<g><path style="opacity:1" fill="#477961" d="M 152.5,197.5 C 152.167,198.5 151.5,199.167 150.5,199.5C 149.502,234.996 149.168,270.663 149.5,306.5C 150.833,306.5 152.167,306.5 153.5,306.5C 153.5,307.167 153.5,307.833 153.5,308.5C 152.167,308.5 150.833,308.5 149.5,308.5C 149.5,307.833 149.167,307.5 148.5,307.5C 148.167,271.161 148.5,234.827 149.5,198.5C 150.417,197.873 151.417,197.539 152.5,197.5 Z"/></g>
<g><path style="opacity:1" fill="#67824b" d="M 222.5,273.5 C 219.97,276.793 216.637,278.793 212.5,279.5C 215.242,276.579 218.575,274.579 222.5,273.5 Z"/></g>
<g><path style="opacity:1" fill="#42623d" d="M 287.5,278.5 C 291.684,278.592 295.017,280.259 297.5,283.5C 293.948,282.209 290.614,280.542 287.5,278.5 Z"/></g>
<g><path style="opacity:1" fill="#155e76" d="M 299.5,273.5 C 303.29,274.895 306.957,276.562 310.5,278.5C 310.33,279.822 310.663,280.989 311.5,282C 316.958,283.897 322.291,286.064 327.5,288.5C 334.7,291.405 341.366,295.072 347.5,299.5C 341.136,296.775 334.803,294.109 328.5,291.5C 328.158,290.662 327.492,290.328 326.5,290.5C 322.1,287.969 317.434,285.969 312.5,284.5C 311.833,284.833 311.167,285.167 310.5,285.5C 308.876,283.559 306.876,282.226 304.5,281.5C 302.488,281.84 300.488,282.173 298.5,282.5C 298.5,281.5 298.5,280.5 298.5,279.5C 299.5,279.5 300.5,279.5 301.5,279.5C 301.747,277.142 301.081,275.142 299.5,273.5 Z"/></g>
<g><path style="opacity:1" fill="#76823a" d="M 150.5,199.5 C 150.333,234.502 150.5,269.502 151,304.5C 151.671,305.252 152.504,305.586 153.5,305.5C 153.5,305.833 153.5,306.167 153.5,306.5C 152.167,306.5 150.833,306.5 149.5,306.5C 149.168,270.663 149.502,234.996 150.5,199.5 Z"/></g>
<g><path style="opacity:1" fill="#567c51" d="M 200.5,277.5 C 200.833,277.5 201.167,277.5 201.5,277.5C 198.947,278.887 196.614,280.72 194.5,283C 193.552,283.483 192.552,283.649 191.5,283.5C 193.139,282.527 194.473,281.194 195.5,279.5C 196.82,278.058 198.486,277.392 200.5,277.5 Z"/></g>
<g><path style="opacity:1" fill="#978a26" d="M 195.5,279.5 C 194.473,281.194 193.139,282.527 191.5,283.5C 186.751,286.202 182.084,288.869 177.5,291.5C 176.833,291.5 176.167,291.5 175.5,291.5C 176.665,288.41 178.998,287.076 182.5,287.5C 182.5,286.167 182.5,284.833 182.5,283.5C 187.014,282.624 191.347,281.291 195.5,279.5 Z"/></g>
<g><path style="opacity:0.635" fill="#0d3d4a" d="M 310.5,278.5 C 316.367,281.596 322.033,284.929 327.5,288.5C 322.291,286.064 316.958,283.897 311.5,282C 310.663,280.989 310.33,279.822 310.5,278.5 Z"/></g>
<g><path style="opacity:1" fill="#8e892b" d="M 81.5,279.5 C 84.1003,280.468 86.4336,281.801 88.5,283.5C 88.5,284.167 88.5,284.833 88.5,285.5C 87.0695,285.579 85.7362,285.246 84.5,284.5C 83.6801,282.681 82.6801,281.014 81.5,279.5 Z"/></g>
<g><path style="opacity:1" fill="#647e4a" d="M 88.5,283.5 C 93.5625,285.066 97.8958,287.733 101.5,291.5C 97.3607,289.194 93.0274,287.194 88.5,285.5C 88.5,284.833 88.5,284.167 88.5,283.5 Z"/></g>
<g><path style="opacity:1" fill="#75833e" d="M 212.5,279.5 C 209.571,281.982 206.571,284.482 203.5,287C 201.846,287.608 200.179,288.108 198.5,288.5C 201.603,286.345 204.603,284.011 207.5,281.5C 209.05,280.559 210.716,279.893 212.5,279.5 Z"/></g>
<g><path style="opacity:1" fill="#487665" d="M 207.5,281.5 C 204.603,284.011 201.603,286.345 198.5,288.5C 195.319,289.349 192.652,291.015 190.5,293.5C 189.833,293.5 189.167,293.5 188.5,293.5C 189.028,292.279 189.695,291.113 190.5,290C 196.104,286.859 201.771,284.026 207.5,281.5 Z"/></g>
<g><path style="opacity:1" fill="#2c7077" d="M 297.5,283.5 C 302.593,285.525 307.927,287.025 313.5,288C 314.897,292.11 317.564,293.61 321.5,292.5C 320.833,291.833 320.167,291.167 319.5,290.5C 320,290.167 320.5,289.833 321,289.5C 322.683,291.286 324.516,291.619 326.5,290.5C 327.492,290.328 328.158,290.662 328.5,291.5C 325.665,292.069 323.999,293.736 323.5,296.5C 325.415,296.216 327.081,296.549 328.5,297.5C 327.167,297.5 325.833,297.5 324.5,297.5C 318.971,294.712 313.304,292.212 307.5,290C 304.509,287.152 301.176,284.985 297.5,283.5 Z"/></g>
<g><path style="opacity:1" fill="#607d4b" d="M 175.5,291.5 C 176.167,291.5 176.833,291.5 177.5,291.5C 175.371,293.95 172.704,295.617 169.5,296.5C 171.5,294.833 173.5,293.167 175.5,291.5 Z"/></g>
<g><path style="opacity:1" fill="#476f52" d="M 324.5,297.5 C 325.833,297.5 327.167,297.5 328.5,297.5C 328.5,298.167 328.833,298.5 329.5,298.5C 330.306,299.728 331.306,300.728 332.5,301.5C 328.981,301.741 326.315,300.407 324.5,297.5 Z"/></g>
<g><path style="opacity:1" fill="#16708f" d="M 328.5,291.5 C 334.803,294.109 341.136,296.775 347.5,299.5C 348.167,300.833 349.167,301.833 350.5,302.5C 347.929,307.136 344.596,307.636 340.5,304C 341.672,303.581 342.672,302.915 343.5,302C 338.894,300.519 334.227,299.352 329.5,298.5C 328.833,298.5 328.5,298.167 328.5,297.5C 327.081,296.549 325.415,296.216 323.5,296.5C 323.999,293.736 325.665,292.069 328.5,291.5 Z"/></g>
<g><path style="opacity:1" fill="#7b8438" d="M 188.5,293.5 C 189.167,293.5 189.833,293.5 190.5,293.5C 186.375,296.768 182.042,299.934 177.5,303C 175.189,303.236 173.189,304.069 171.5,305.5C 169.685,306.63 167.685,307.296 165.5,307.5C 167.5,305.833 169.5,304.167 171.5,302.5C 173.564,302.313 175.564,301.813 177.5,301C 180.846,297.785 184.513,295.285 188.5,293.5 Z"/></g>
<g><path style="opacity:1" fill="#8a8730" d="M 107.5,295.5 C 108.833,295.833 110.167,296.167 111.5,296.5C 114.154,298.409 116.82,300.409 119.5,302.5C 122.009,303.921 124.343,305.588 126.5,307.5C 122.657,306.35 118.99,304.683 115.5,302.5C 112.814,300.144 110.147,297.811 107.5,295.5 Z"/></g>
<g><path style="opacity:1" fill="#577a55" d="M 119.5,302.5 C 123.828,302.825 127.161,304.825 129.5,308.5C 128.391,308.443 127.391,308.11 126.5,307.5C 124.343,305.588 122.009,303.921 119.5,302.5 Z"/></g>
<g><path style="opacity:1" fill="#497761" d="M 169.5,296.5 C 165.442,301.894 160.109,305.228 153.5,306.5C 153.5,306.167 153.5,305.833 153.5,305.5C 156.524,303.987 159.191,301.987 161.5,299.5C 163.781,297.572 166.447,296.572 169.5,296.5 Z"/></g>
<g><path style="opacity:1" fill="#9d8921" d="M 171.5,305.5 C 168.867,308.16 166.2,310.827 163.5,313.5C 162.271,314.281 160.938,314.781 159.5,315C 161.903,316.853 164.236,318.686 166.5,320.5C 161.89,320.222 158.223,318.222 155.5,314.5C 158.349,311.293 161.682,308.96 165.5,307.5C 167.685,307.296 169.685,306.63 171.5,305.5 Z"/></g>
<g><path style="opacity:1" fill="#7e8635" d="M 339.5,306.5 C 341.482,306.995 343.482,307.495 345.5,308C 346.804,308.804 347.471,309.971 347.5,311.5C 344.026,314.737 340.359,317.737 336.5,320.5C 334.435,320.517 332.435,320.85 330.5,321.5C 334.459,319.232 338.459,316.898 342.5,314.5C 343.631,312.926 343.798,311.259 343,309.5C 341.482,308.837 340.315,307.837 339.5,306.5 Z"/></g>
<g><path style="opacity:1" fill="#49785f" d="M 51.5,260.5 C 50.5,260.5 49.5,260.5 48.5,260.5C 48.6667,293.835 48.5,327.168 48,360.5C 46.5993,362.192 44.7659,362.859 42.5,362.5C 43.287,360.896 44.6203,360.229 46.5,360.5C 46.9926,358.194 47.3259,355.861 47.5,353.5C 47.5,322.167 47.5,290.833 47.5,259.5C 49.099,259.232 50.4324,259.566 51.5,260.5 Z"/></g>
<g><path style="opacity:1" fill="#708140" d="M 51.5,260.5 C 52.795,261.488 54.1283,262.488 55.5,263.5C 55.8333,264.167 56.1667,264.833 56.5,265.5C 55.8333,265.5 55.1667,265.5 54.5,265.5C 53.5994,263.273 51.9328,262.273 49.5,262.5C 49.5,295.833 49.5,329.167 49.5,362.5C 45.3396,363.093 44.6729,364.76 47.5,367.5C 45.8828,366.962 44.2161,366.629 42.5,366.5C 41.1667,365.167 41.1667,363.833 42.5,362.5C 44.7659,362.859 46.5993,362.192 48,360.5C 48.5,327.168 48.6667,293.835 48.5,260.5C 49.5,260.5 50.5,260.5 51.5,260.5 Z"/></g>
<g><path style="opacity:1" fill="#607d4b" d="M 129.5,308.5 C 131.833,309.167 134.167,309.833 136.5,310.5C 137.122,311.627 137.955,312.627 139,313.5C 139.831,349.002 139.664,384.336 138.5,419.5C 138.832,385.329 138.498,351.329 137.5,317.5C 137.762,316.022 137.429,314.689 136.5,313.5C 133.846,312.164 131.513,310.497 129.5,308.5 Z"/></g>
<g><path style="opacity:1" fill="#17728d" d="M 141.5,199.5 C 143.39,199.297 144.89,199.963 146,201.5C 146.188,234.516 146.688,267.516 147.5,300.5C 147.327,302.038 146.994,303.538 146.5,305C 146.639,306.301 147.305,307.134 148.5,307.5C 149.167,307.5 149.5,307.833 149.5,308.5C 150.446,310.132 151.446,311.799 152.5,313.5C 150.604,314.466 148.604,314.799 146.5,314.5C 146.174,348.543 146.507,382.543 147.5,416.5C 146.906,419.83 146.24,423.164 145.5,426.5C 143.512,424.853 142.179,425.186 141.5,427.5C 139.076,427.808 136.743,427.474 134.5,426.5C 132.853,424.512 133.186,423.179 135.5,422.5C 137.167,422.5 138.833,422.5 140.5,422.5C 140.667,385.832 140.5,349.165 140,312.5C 139.184,311.177 138.017,310.511 136.5,310.5C 134.167,309.833 131.833,309.167 129.5,308.5C 127.161,304.825 123.828,302.825 119.5,302.5C 116.82,300.409 114.154,298.409 111.5,296.5C 110.284,294.549 108.618,293.049 106.5,292C 107.624,291.751 108.624,291.251 109.5,290.5C 108.078,289.453 106.578,289.453 105,290.5C 101.946,287.277 98.7795,284.277 95.5,281.5C 96.723,280.386 98.0563,280.219 99.5,281C 100.509,283.172 102.176,284.338 104.5,284.5C 110.19,288.012 116.19,291.012 122.5,293.5C 125.097,295.594 128.097,296.927 131.5,297.5C 133.073,300.893 135.74,302.226 139.5,301.5C 140.167,267.5 140.833,233.5 141.5,199.5 Z"/></g>
<g><path style="opacity:1" fill="#447761" d="M 104.5,282.5 C 105.167,282.5 105.833,282.5 106.5,282.5C 110.188,286 114.521,288.5 119.5,290C 120.71,291.039 121.71,292.206 122.5,293.5C 116.19,291.012 110.19,288.012 104.5,284.5C 104.5,283.833 104.5,283.167 104.5,282.5 Z"/></g>
<g><path style="opacity:1" fill="#89872f" d="M 106.5,282.5 C 109.425,282.46 112.091,283.293 114.5,285C 118.68,287.696 122.68,290.53 126.5,293.5C 128.167,294.833 129.833,296.167 131.5,297.5C 128.097,296.927 125.097,295.594 122.5,293.5C 121.71,292.206 120.71,291.039 119.5,290C 114.521,288.5 110.188,286 106.5,282.5 Z"/></g>
<g><path style="opacity:0.302" fill="#13495c" d="M 347.5,299.5 C 351.471,300.572 354.971,302.572 358,305.5C 358.176,330.209 358.676,354.876 359.5,379.5C 359.806,397.162 359.473,414.829 358.5,432.5C 358.137,391.999 357.471,351.665 356.5,311.5C 356.233,308.688 355.233,306.355 353.5,304.5C 352.5,303.833 351.5,303.167 350.5,302.5C 349.167,301.833 348.167,300.833 347.5,299.5 Z"/></g>
<g><path style="opacity:1" fill="#24737e" d="M 149.5,308.5 C 150.833,308.5 152.167,308.5 153.5,308.5C 153.285,310.179 153.952,311.179 155.5,311.5C 153.893,314.715 151.226,316.049 147.5,315.5C 147.169,338.339 147.503,361.006 148.5,383.5C 148.171,397.344 148.504,411.01 149.5,424.5C 151.197,428.416 154.197,430.75 158.5,431.5C 160.142,433.081 162.142,433.747 164.5,433.5C 166.93,435.053 168.93,437.053 170.5,439.5C 168.243,439.038 166.243,438.038 164.5,436.5C 158.056,437.126 153.389,434.626 150.5,429C 146.78,427.608 144.78,428.775 144.5,432.5C 144.028,430.469 143.028,428.802 141.5,427.5C 142.179,425.186 143.512,424.853 145.5,426.5C 146.24,423.164 146.906,419.83 147.5,416.5C 146.507,382.543 146.174,348.543 146.5,314.5C 148.604,314.799 150.604,314.466 152.5,313.5C 151.446,311.799 150.446,310.132 149.5,308.5 Z"/></g>
<g><path style="opacity:1" fill="#7e8436" d="M 166.5,320.5 C 171.032,322.597 175.365,324.931 179.5,327.5C 173.936,327.219 169.603,324.886 166.5,320.5 Z"/></g>
<g><path style="opacity:1" fill="#b48b01" d="M 153.5,318.5 C 161.628,324.264 170.295,329.264 179.5,333.5C 181.027,333.427 182.027,334.094 182.5,335.5C 184.023,338.937 186.689,340.937 190.5,341.5C 191.167,341.5 191.833,341.5 192.5,341.5C 193.855,344.518 196.188,345.851 199.5,345.5C 203.115,347.414 206.782,349.414 210.5,351.5C 210.5,351.833 210.5,352.167 210.5,352.5C 213.996,355.656 217.996,357.989 222.5,359.5C 225.32,361.745 228.32,363.745 231.5,365.5C 233.592,368.723 236.592,370.723 240.5,371.5C 241.167,371.5 241.833,371.5 242.5,371.5C 243.234,372.708 243.567,374.041 243.5,375.5C 242.502,409.663 242.168,443.996 242.5,478.5C 238.505,476.892 234.838,474.725 231.5,472C 230.207,471.51 228.873,471.343 227.5,471.5C 226.508,471.672 225.842,471.338 225.5,470.5C 222.939,467.283 219.605,465.283 215.5,464.5C 213.886,461.231 211.219,459.564 207.5,459.5C 207.063,457.926 206.063,456.759 204.5,456C 200.392,453.279 196.059,451.113 191.5,449.5C 189.181,449.008 187.181,448.008 185.5,446.5C 179.974,442.377 174.307,438.21 168.5,434C 167.207,433.51 165.873,433.343 164.5,433.5C 161.465,431.983 158.799,429.817 156.5,427C 154.846,426.392 153.179,425.892 151.5,425.5C 150.833,425.5 150.5,425.167 150.5,424.5C 150.5,389.167 150.5,353.833 150.5,318.5C 151.5,318.5 152.5,318.5 153.5,318.5 Z"/></g>
<g><path style="opacity:1" fill="#49775f" d="M 171.5,302.5 C 169.5,304.167 167.5,305.833 165.5,307.5C 161.682,308.96 158.349,311.293 155.5,314.5C 158.223,318.222 161.89,320.222 166.5,320.5C 169.603,324.886 173.936,327.219 179.5,327.5C 181.922,329.268 184.588,330.768 187.5,332C 189.063,332.759 190.063,333.926 190.5,335.5C 186.916,334.375 183.582,332.708 180.5,330.5C 179.833,330.667 179.167,330.833 178.5,331C 179.252,331.671 179.586,332.504 179.5,333.5C 170.295,329.264 161.628,324.264 153.5,318.5C 153.5,317.833 153.167,317.5 152.5,317.5C 151.432,316.566 150.099,316.232 148.5,316.5C 148.5,338.833 148.5,361.167 148.5,383.5C 147.503,361.006 147.169,338.339 147.5,315.5C 151.226,316.049 153.893,314.715 155.5,311.5C 159.326,308.656 163.326,305.99 167.5,303.5C 168.689,302.571 170.022,302.238 171.5,302.5 Z"/></g>
<g><path style="opacity:1" fill="#77853a" d="M 330.5,321.5 C 325.833,324.833 321.167,328.167 316.5,331.5C 315.833,331.5 315.167,331.5 314.5,331.5C 318.967,326.886 324.3,323.553 330.5,321.5 Z"/></g>
<g><path style="opacity:1" fill="#367474" d="M 336.5,320.5 C 331.98,322.344 328.313,325.344 325.5,329.5C 322.522,330.353 319.522,331.019 316.5,331.5C 321.167,328.167 325.833,324.833 330.5,321.5C 332.435,320.85 334.435,320.517 336.5,320.5 Z"/></g>
<g><path style="opacity:1" fill="#b48b01" d="M 345.5,426.5 C 345.167,427.833 344.833,429.167 344.5,430.5C 338.816,431.752 333.149,433.086 327.5,434.5C 328.246,435.736 328.579,437.07 328.5,438.5C 327.178,438.67 326.011,438.337 325,437.5C 324.517,438.448 324.351,439.448 324.5,440.5C 322.396,440.201 320.396,440.534 318.5,441.5C 315.437,445.566 311.771,448.899 307.5,451.5C 304.796,453.171 302.129,454.837 299.5,456.5C 298.127,456.343 296.793,456.51 295.5,457C 292.307,458.556 289.64,460.723 287.5,463.5C 286.448,463.351 285.448,463.517 284.5,464C 280.741,467.845 276.407,470.678 271.5,472.5C 266.307,474.118 261.307,476.118 256.5,478.5C 255.521,445.198 255.188,411.864 255.5,378.5C 258.139,376.424 260.806,374.258 263.5,372C 264.448,371.517 265.448,371.351 266.5,371.5C 270.775,368.677 275.442,366.51 280.5,365C 281.71,363.961 282.71,362.794 283.5,361.5C 287.742,361.045 291.075,359.045 293.5,355.5C 296.533,353.984 299.2,351.984 301.5,349.5C 302.167,349.5 302.833,349.5 303.5,349.5C 308.612,348.046 312.945,345.38 316.5,341.5C 319.5,340.167 322.5,338.833 325.5,337.5C 326.873,337.657 328.207,337.49 329.5,337C 331.431,336.098 333.097,334.931 334.5,333.5C 338.41,332.228 342.077,330.561 345.5,328.5C 345.5,361.167 345.5,393.833 345.5,426.5 Z"/></g>
<g><path style="opacity:1" fill="#9a8921" d="M 179.5,327.5 C 184.17,329.888 189.17,331.388 194.5,332C 200.389,336.407 206.055,340.907 211.5,345.5C 204.474,342.12 197.474,338.787 190.5,335.5C 190.063,333.926 189.063,332.759 187.5,332C 184.588,330.768 181.922,329.268 179.5,327.5 Z"/></g>
<g><path style="opacity:0.961" fill="#185668" d="M 38.5,320.5 C 39.4958,334.323 39.8291,348.323 39.5,362.5C 40.5,362.5 41.5,362.5 42.5,362.5C 41.1667,363.833 41.1667,365.167 42.5,366.5C 41.1779,366.67 40.0113,366.337 39,365.5C 37.7427,359.231 37.2427,352.898 37.5,346.5C 38.493,338.016 38.8264,329.349 38.5,320.5 Z"/></g>
<g><path style="opacity:1" fill="#1b728b" d="M 329.5,298.5 C 334.227,299.352 338.894,300.519 343.5,302C 342.672,302.915 341.672,303.581 340.5,304C 344.596,307.636 347.929,307.136 350.5,302.5C 351.5,303.167 352.5,303.833 353.5,304.5C 353.803,307.588 352.47,309.254 349.5,309.5C 349.297,311.39 349.963,312.89 351.5,314C 347.812,313.864 347.645,315.364 351,318.5C 351.914,317.346 352.747,317.513 353.5,319C 352.417,328.376 352.417,337.876 353.5,347.5C 353.167,348.833 352.833,350.167 352.5,351.5C 351.914,351.291 351.414,350.957 351,350.5C 350.833,353.333 350.667,356.167 350.5,359C 351.124,364.302 351.124,369.302 350.5,374C 351.218,376.461 351.885,378.961 352.5,381.5C 352.192,382.308 351.692,382.975 351,383.5C 350.831,396.34 350.331,409.007 349.5,421.5C 348.853,389.504 348.353,357.504 348,325.5C 345.055,324.425 342.555,325.092 340.5,327.5C 337.167,329.167 333.833,330.833 330.5,332.5C 326.149,332.969 321.816,333.636 317.5,334.5C 318.689,335.429 320.022,335.762 321.5,335.5C 321.5,336.5 321.5,337.5 321.5,338.5C 319.067,338.273 317.401,339.273 316.5,341.5C 312.577,342.795 308.91,344.628 305.5,347C 304.619,347.708 303.953,348.542 303.5,349.5C 302.833,349.5 302.167,349.5 301.5,349.5C 295.887,350.636 291.22,353.303 287.5,357.5C 284.4,359.228 281.067,360.561 277.5,361.5C 275.063,361.402 273.063,360.402 271.5,358.5C 273.045,357.548 274.712,357.215 276.5,357.5C 276.5,356.5 276.5,355.5 276.5,354.5C 278.05,353.559 279.716,352.893 281.5,352.5C 283.5,352.167 285.5,351.833 287.5,351.5C 287.5,350.5 287.5,349.5 287.5,348.5C 289.467,348.261 291.301,348.594 293,349.5C 293.635,348.034 294.469,346.7 295.5,345.5C 300.375,342.874 304.708,339.541 308.5,335.5C 311.292,335.378 313.292,334.044 314.5,331.5C 315.167,331.5 315.833,331.5 316.5,331.5C 319.522,331.019 322.522,330.353 325.5,329.5C 328.313,325.344 331.98,322.344 336.5,320.5C 340.359,317.737 344.026,314.737 347.5,311.5C 347.471,309.971 346.804,308.804 345.5,308C 343.482,307.495 341.482,306.995 339.5,306.5C 337.303,304.575 334.969,302.908 332.5,301.5C 331.306,300.728 330.306,299.728 329.5,298.5 Z"/></g>
<g><path style="opacity:1" fill="#307578" d="M 330.5,332.5 C 330.5,332.833 330.5,333.167 330.5,333.5C 328.833,334.833 327.167,336.167 325.5,337.5C 322.5,338.833 319.5,340.167 316.5,341.5C 317.401,339.273 319.067,338.273 321.5,338.5C 321.5,337.5 321.5,336.5 321.5,335.5C 320.022,335.762 318.689,335.429 317.5,334.5C 321.816,333.636 326.149,332.969 330.5,332.5 Z"/></g>
<g><path style="opacity:1" fill="#617d4f" d="M 340.5,327.5 C 340.833,327.5 341.167,327.5 341.5,327.5C 339.672,330.194 337.339,332.194 334.5,333.5C 333.167,333.5 331.833,333.5 330.5,333.5C 330.5,333.167 330.5,332.833 330.5,332.5C 333.833,330.833 337.167,329.167 340.5,327.5 Z"/></g>
<g><path style="opacity:1" fill="#577b52" d="M 314.5,331.5 C 313.292,334.044 311.292,335.378 308.5,335.5C 309.487,332.914 311.487,331.581 314.5,331.5 Z"/></g>
<g><path style="opacity:1" fill="#8c872c" d="M 330.5,333.5 C 331.833,333.5 333.167,333.5 334.5,333.5C 333.097,334.931 331.431,336.098 329.5,337C 328.207,337.49 326.873,337.657 325.5,337.5C 327.167,336.167 328.833,334.833 330.5,333.5 Z"/></g>
<g><path style="opacity:1" fill="#938925" d="M 341.5,327.5 C 341.833,327.5 342.167,327.5 342.5,327.5C 343.833,327.5 345.167,327.5 346.5,327.5C 346.832,360.671 346.498,393.671 345.5,426.5C 345.5,393.833 345.5,361.167 345.5,328.5C 342.077,330.561 338.41,332.228 334.5,333.5C 337.339,332.194 339.672,330.194 341.5,327.5 Z"/></g>
<g><path style="opacity:1" fill="#8c8a2c" d="M 182.5,335.5 C 184.262,337.7 186.596,338.867 189.5,339C 190.252,339.671 190.586,340.504 190.5,341.5C 186.689,340.937 184.023,338.937 182.5,335.5 Z"/></g>
<g><path style="opacity:1" fill="#90872b" d="M 303.5,337.5 C 298.974,339.311 294.974,341.977 291.5,345.5C 290.167,345.5 288.833,345.5 287.5,345.5C 288.736,343.957 290.402,342.957 292.5,342.5C 293.429,341.311 293.762,339.978 293.5,338.5C 296.902,338.658 300.236,338.324 303.5,337.5 Z"/></g>
<g><path style="opacity:1" fill="#147291" d="M 353.5,304.5 C 355.233,306.355 356.233,308.688 356.5,311.5C 356.667,336.169 356.5,360.836 356,385.5C 355.333,384.833 354.667,384.167 354,383.5C 353.833,386.167 353.667,388.833 353.5,391.5C 354.461,404.995 354.795,418.662 354.5,432.5C 354.167,433.5 353.5,434.167 352.5,434.5C 350.343,433.95 348.343,433.283 346.5,432.5C 347.79,431.942 348.623,430.942 349,429.5C 349.497,426.854 349.664,424.187 349.5,421.5C 350.331,409.007 350.831,396.34 351,383.5C 351.692,382.975 352.192,382.308 352.5,381.5C 351.885,378.961 351.218,376.461 350.5,374C 351.124,369.302 351.124,364.302 350.5,359C 350.667,356.167 350.833,353.333 351,350.5C 351.414,350.957 351.914,351.291 352.5,351.5C 352.833,350.167 353.167,348.833 353.5,347.5C 352.417,337.876 352.417,328.376 353.5,319C 352.747,317.513 351.914,317.346 351,318.5C 347.645,315.364 347.812,313.864 351.5,314C 349.963,312.89 349.297,311.39 349.5,309.5C 352.47,309.254 353.803,307.588 353.5,304.5 Z"/></g>
<g><path style="opacity:1" fill="#347473" d="M 190.5,335.5 C 197.474,338.787 204.474,342.12 211.5,345.5C 211.833,345.5 212.167,345.5 212.5,345.5C 215.02,347.263 217.353,349.263 219.5,351.5C 216.549,350.306 213.549,349.306 210.5,348.5C 210.5,349.5 210.5,350.5 210.5,351.5C 206.782,349.414 203.115,347.414 199.5,345.5C 197.434,343.801 195.1,342.468 192.5,341.5C 191.833,341.5 191.167,341.5 190.5,341.5C 190.586,340.504 190.252,339.671 189.5,339C 186.596,338.867 184.262,337.7 182.5,335.5C 182.027,334.094 181.027,333.427 179.5,333.5C 179.586,332.504 179.252,331.671 178.5,331C 179.167,330.833 179.833,330.667 180.5,330.5C 183.582,332.708 186.916,334.375 190.5,335.5 Z"/></g>
<g><path style="opacity:1" fill="#6e8541" d="M 192.5,341.5 C 195.1,342.468 197.434,343.801 199.5,345.5C 196.188,345.851 193.855,344.518 192.5,341.5 Z"/></g>
<g><path style="opacity:1" fill="#7f8536" d="M 212.5,345.5 C 218.059,346.613 222.726,349.279 226.5,353.5C 223.892,353.6 221.558,352.933 219.5,351.5C 217.353,349.263 215.02,347.263 212.5,345.5 Z"/></g>
<g><path style="opacity:1" fill="#3e7667" d="M 349.5,421.5 C 349.664,424.187 349.497,426.854 349,429.5C 348.623,430.942 347.79,431.942 346.5,432.5C 345.167,432.833 343.833,433.167 342.5,433.5C 343.167,432.5 343.833,431.5 344.5,430.5C 345.931,430.119 346.764,429.119 347,427.5C 347.5,393.835 347.667,360.168 347.5,326.5C 345.585,326.216 343.919,326.549 342.5,327.5C 342.167,327.5 341.833,327.5 341.5,327.5C 341.167,327.5 340.833,327.5 340.5,327.5C 342.555,325.092 345.055,324.425 348,325.5C 348.353,357.504 348.853,389.504 349.5,421.5 Z"/></g>
<g><path style="opacity:1" fill="#507959" d="M 287.5,345.5 C 288.833,345.5 290.167,345.5 291.5,345.5C 287.635,347.025 284.302,349.358 281.5,352.5C 279.716,352.893 278.05,353.559 276.5,354.5C 275.167,354.833 273.833,355.167 272.5,355.5C 277.521,352.136 282.521,348.803 287.5,345.5 Z"/></g>
<g><path style="opacity:1" fill="#2c747b" d="M 308.5,335.5 C 304.708,339.541 300.375,342.874 295.5,345.5C 294.469,346.7 293.635,348.034 293,349.5C 291.301,348.594 289.467,348.261 287.5,348.5C 287.5,349.5 287.5,350.5 287.5,351.5C 285.5,351.833 283.5,352.167 281.5,352.5C 284.302,349.358 287.635,347.025 291.5,345.5C 294.974,341.977 298.974,339.311 303.5,337.5C 304.635,335.787 306.302,335.12 308.5,335.5 Z"/></g>
<g><path style="opacity:1" fill="#587d50" d="M 316.5,341.5 C 312.945,345.38 308.612,348.046 303.5,349.5C 303.953,348.542 304.619,347.708 305.5,347C 308.91,344.628 312.577,342.795 316.5,341.5 Z"/></g>
<g><path style="opacity:1" fill="#3e7569" d="M 301.5,349.5 C 299.2,351.984 296.533,353.984 293.5,355.5C 291.685,356.63 289.685,357.296 287.5,357.5C 291.22,353.303 295.887,350.636 301.5,349.5 Z"/></g>
<g><path style="opacity:1" fill="#577c54" d="M 210.5,352.5 C 215.399,353.283 219.399,355.617 222.5,359.5C 217.996,357.989 213.996,355.656 210.5,352.5 Z"/></g>
<g><path style="opacity:1" fill="#8f872d" d="M 227.5,353.5 C 231.338,355.281 235.338,356.781 239.5,358C 240.381,358.708 241.047,359.542 241.5,360.5C 239.022,359.117 236.355,358.117 233.5,357.5C 230.802,357.155 228.802,355.822 227.5,353.5 Z"/></g>
<g><path style="opacity:1" fill="#a28b17" d="M 54.5,265.5 C 53.1667,265.5 51.8333,265.5 50.5,265.5C 51.1482,297.499 51.3148,329.499 51,361.5C 50.6174,362.056 50.1174,362.389 49.5,362.5C 49.5,329.167 49.5,295.833 49.5,262.5C 51.9328,262.273 53.5994,263.273 54.5,265.5 Z"/></g>
<g><path style="opacity:1" fill="#5d7e51" d="M 152.5,317.5 C 151.5,317.5 150.5,317.5 149.5,317.5C 149.5,353.167 149.5,388.833 149.5,424.5C 148.504,411.01 148.171,397.344 148.5,383.5C 148.5,361.167 148.5,338.833 148.5,316.5C 150.099,316.232 151.432,316.566 152.5,317.5 Z"/></g>
<g><path style="opacity:1" fill="#547a59" d="M 222.5,359.5 C 226.884,360.192 230.55,362.192 233.5,365.5C 232.833,365.5 232.167,365.5 231.5,365.5C 228.32,363.745 225.32,361.745 222.5,359.5 Z"/></g>
<g><path style="opacity:1" fill="#8e8928" d="M 293.5,355.5 C 291.075,359.045 287.742,361.045 283.5,361.5C 284.833,360.167 286.167,358.833 287.5,357.5C 289.685,357.296 291.685,356.63 293.5,355.5 Z"/></g>
<g><path style="opacity:1" fill="#8a862c" d="M 152.5,317.5 C 153.167,317.5 153.5,317.833 153.5,318.5C 152.5,318.5 151.5,318.5 150.5,318.5C 150.5,353.833 150.5,389.167 150.5,424.5C 150.167,424.5 149.833,424.5 149.5,424.5C 149.5,388.833 149.5,353.167 149.5,317.5C 150.5,317.5 151.5,317.5 152.5,317.5 Z"/></g>
<g><path style="opacity:1" fill="#237384" d="M 219.5,351.5 C 221.558,352.933 223.892,353.6 226.5,353.5C 226.833,353.5 227.167,353.5 227.5,353.5C 228.802,355.822 230.802,357.155 233.5,357.5C 236.334,359.75 239.334,361.916 242.5,364C 243.793,364.49 245.127,364.657 246.5,364.5C 248.717,365.369 251.05,365.702 253.5,365.5C 255.199,365.66 256.866,365.494 258.5,365C 263.009,361.978 267.343,358.812 271.5,355.5C 271.833,355.5 272.167,355.5 272.5,355.5C 273.833,355.167 275.167,354.833 276.5,354.5C 276.5,355.5 276.5,356.5 276.5,357.5C 274.712,357.215 273.045,357.548 271.5,358.5C 273.063,360.402 275.063,361.402 277.5,361.5C 281.067,360.561 284.4,359.228 287.5,357.5C 286.167,358.833 284.833,360.167 283.5,361.5C 279.5,363.167 275.5,364.833 271.5,366.5C 266.001,369.119 260.667,372.119 255.5,375.5C 254.504,375.414 253.671,375.748 253,376.5C 252.5,389.496 252.333,402.496 252.5,415.5C 251.778,402.642 251.112,389.642 250.5,376.5C 249.167,376.5 247.833,376.5 246.5,376.5C 246.832,412.337 246.498,448.004 245.5,483.5C 245.5,447.5 245.5,411.5 245.5,375.5C 245.912,373.027 244.912,371.694 242.5,371.5C 241.833,371.5 241.167,371.5 240.5,371.5C 238.571,368.826 236.238,366.826 233.5,365.5C 230.55,362.192 226.884,360.192 222.5,359.5C 219.399,355.617 215.399,353.283 210.5,352.5C 210.5,352.167 210.5,351.833 210.5,351.5C 210.5,350.5 210.5,349.5 210.5,348.5C 213.549,349.306 216.549,350.306 219.5,351.5 Z"/></g>
<g><path style="opacity:1" fill="#627e4e" d="M 271.5,355.5 C 267.343,358.812 263.009,361.978 258.5,365C 256.866,365.494 255.199,365.66 253.5,365.5C 257.875,363.307 261.875,360.474 265.5,357C 267.436,356.187 269.436,355.687 271.5,355.5 Z"/></g>
<g><path style="opacity:1" fill="#5a7c51" d="M 233.5,357.5 C 236.355,358.117 239.022,359.117 241.5,360.5C 243.389,361.604 245.055,362.937 246.5,364.5C 245.127,364.657 243.793,364.49 242.5,364C 239.334,361.916 236.334,359.75 233.5,357.5 Z"/></g>
<g><path style="opacity:1" fill="#868733" d="M 283.5,361.5 C 282.71,362.794 281.71,363.961 280.5,365C 275.442,366.51 270.775,368.677 266.5,371.5C 267.897,369.621 269.563,367.954 271.5,366.5C 275.5,364.833 279.5,363.167 283.5,361.5 Z"/></g>
<g><path style="opacity:1" fill="#8b8a2f" d="M 231.5,365.5 C 232.167,365.5 232.833,365.5 233.5,365.5C 236.238,366.826 238.571,368.826 240.5,371.5C 236.592,370.723 233.592,368.723 231.5,365.5 Z"/></g>
<g><path style="opacity:1" fill="#2f6663" d="M 42.5,366.5 C 44.2161,366.629 45.8828,366.962 47.5,367.5C 51.0769,370.315 55.0769,372.482 59.5,374C 61.6857,375.412 63.3524,377.245 64.5,379.5C 62.8211,379.108 61.1545,378.608 59.5,378C 56.7258,375.581 53.7258,373.414 50.5,371.5C 48.9547,370.548 47.288,370.215 45.5,370.5C 45.5,371.833 45.5,373.167 45.5,374.5C 43.2229,373.138 42.8896,371.305 44.5,369C 43.9444,367.989 43.2778,367.156 42.5,366.5 Z"/></g>
<g><path style="opacity:1" fill="#36766c" d="M 136.5,310.5 C 138.017,310.511 139.184,311.177 140,312.5C 140.5,349.165 140.667,385.832 140.5,422.5C 138.833,422.5 137.167,422.5 135.5,422.5C 133.527,421.194 131.861,419.527 130.5,417.5C 131.167,417.5 131.833,417.5 132.5,417.5C 133.92,420.349 135.92,421.016 138.5,419.5C 139.664,384.336 139.831,349.002 139,313.5C 137.955,312.627 137.122,311.627 136.5,310.5 Z"/></g>
<g><path style="opacity:1" fill="#5c7c50" d="M 271.5,366.5 C 269.563,367.954 267.897,369.621 266.5,371.5C 265.448,371.351 264.448,371.517 263.5,372C 260.806,374.258 258.139,376.424 255.5,378.5C 254.336,411.998 254.169,445.664 255,479.5C 256.776,480.536 258.609,480.536 260.5,479.5C 258.266,482.665 255.932,482.998 253.5,480.5C 253.333,446.165 253.5,411.832 254,377.5C 254.717,376.956 255.217,376.289 255.5,375.5C 260.667,372.119 266.001,369.119 271.5,366.5 Z"/></g>
<g><path style="opacity:1" fill="#4b7860" d="M 66.5,379.5 C 73.5196,382.673 80.1863,386.34 86.5,390.5C 87.6935,391.272 88.6935,392.272 89.5,393.5C 83.0114,390.825 76.6781,387.658 70.5,384C 68.8082,382.693 67.4749,381.193 66.5,379.5 Z"/></g>
<g><path style="opacity:1" fill="#8e882b" d="M 137.5,317.5 C 138.498,351.329 138.832,385.329 138.5,419.5C 135.92,421.016 133.92,420.349 132.5,417.5C 134.117,418.038 135.784,418.371 137.5,418.5C 137.5,384.833 137.5,351.167 137.5,317.5 Z"/></g>
<g><path style="opacity:1" fill="#1b687d" d="M 64.5,379.5 C 65.1667,379.5 65.8333,379.5 66.5,379.5C 67.4749,381.193 68.8082,382.693 70.5,384C 76.6781,387.658 83.0114,390.825 89.5,393.5C 94.8287,396.498 100.162,399.498 105.5,402.5C 106.141,403.482 106.807,404.482 107.5,405.5C 112.992,408.208 118.325,411.208 123.5,414.5C 125.98,415.242 128.313,416.242 130.5,417.5C 131.861,419.527 133.527,421.194 135.5,422.5C 133.186,423.179 132.853,424.512 134.5,426.5C 136.743,427.474 139.076,427.808 141.5,427.5C 143.028,428.802 144.028,430.469 144.5,432.5C 148.705,434.364 152.372,437.03 155.5,440.5C 144.288,433.649 132.954,426.982 121.5,420.5C 120.404,418.233 118.737,416.4 116.5,415C 113.048,414.108 110.048,412.442 107.5,410C 106.207,409.51 104.873,409.343 103.5,409.5C 83.794,398.32 64.4606,386.653 45.5,374.5C 45.5,373.167 45.5,371.833 45.5,370.5C 47.288,370.215 48.9547,370.548 50.5,371.5C 53.7258,373.414 56.7258,375.581 59.5,378C 61.1545,378.608 62.8211,379.108 64.5,379.5 Z"/></g>
<g><path style="opacity:1" fill="#898531" d="M 86.5,390.5 C 87.9778,390.238 89.3112,390.571 90.5,391.5C 93.0877,394.427 96.421,395.927 100.5,396C 102.866,398.174 105.199,400.34 107.5,402.5C 106.833,402.5 106.167,402.5 105.5,402.5C 100.162,399.498 94.8287,396.498 89.5,393.5C 88.6935,392.272 87.6935,391.272 86.5,390.5 Z"/></g>
<g><path style="opacity:1" fill="#658049" d="M 242.5,371.5 C 244.912,371.694 245.912,373.027 245.5,375.5C 245.165,412.345 244.165,449.011 242.5,485.5C 242.167,485.5 241.833,485.5 241.5,485.5C 239.925,483.886 239.259,481.886 239.5,479.5C 240.833,479.5 242.167,479.5 243.5,479.5C 243.5,444.833 243.5,410.167 243.5,375.5C 243.567,374.041 243.234,372.708 242.5,371.5 Z"/></g>
<g><path style="opacity:1" fill="#3d7666" d="M 245.5,375.5 C 245.5,411.5 245.5,447.5 245.5,483.5C 245.5,484.833 245.5,486.167 245.5,487.5C 244.833,487.5 244.167,487.5 243.5,487.5C 243.167,486.833 242.833,486.167 242.5,485.5C 244.165,449.011 245.165,412.345 245.5,375.5 Z"/></g>
<g><path style="opacity:1" fill="#4e785f" d="M 105.5,402.5 C 106.167,402.5 106.833,402.5 107.5,402.5C 107.804,403.15 108.137,403.817 108.5,404.5C 114.584,406.258 119.584,409.592 123.5,414.5C 118.325,411.208 112.992,408.208 107.5,405.5C 106.807,404.482 106.141,403.482 105.5,402.5 Z"/></g>
<g><path style="opacity:1" fill="#75823a" d="M 342.5,327.5 C 343.919,326.549 345.585,326.216 347.5,326.5C 347.667,360.168 347.5,393.835 347,427.5C 346.764,429.119 345.931,430.119 344.5,430.5C 344.833,429.167 345.167,427.833 345.5,426.5C 346.498,393.671 346.832,360.671 346.5,327.5C 345.167,327.5 343.833,327.5 342.5,327.5 Z"/></g>
<g><path style="opacity:0.996" fill="#10485a" d="M 103.5,409.5 C 104.873,409.343 106.207,409.51 107.5,410C 110.048,412.442 113.048,414.108 116.5,415C 118.737,416.4 120.404,418.233 121.5,420.5C 115.13,417.321 109.13,413.654 103.5,409.5 Z"/></g>
<g><path style="opacity:1" fill="#2f7471" d="M 255.5,375.5 C 255.217,376.289 254.717,376.956 254,377.5C 253.5,411.832 253.333,446.165 253.5,480.5C 252.503,459.006 252.169,437.34 252.5,415.5C 252.333,402.496 252.5,389.496 253,376.5C 253.671,375.748 254.504,375.414 255.5,375.5 Z"/></g>
<g><path style="opacity:1" fill="#858732" d="M 151.5,425.5 C 153.179,425.892 154.846,426.392 156.5,427C 158.799,429.817 161.465,431.983 164.5,433.5C 162.142,433.747 160.142,433.081 158.5,431.5C 156.672,428.806 154.339,426.806 151.5,425.5 Z"/></g>
<g><path style="opacity:1" fill="#527b55" d="M 149.5,424.5 C 149.833,424.5 150.167,424.5 150.5,424.5C 150.5,425.167 150.833,425.5 151.5,425.5C 154.339,426.806 156.672,428.806 158.5,431.5C 154.197,430.75 151.197,428.416 149.5,424.5 Z"/></g>
<g><path style="opacity:1" fill="#7c843a" d="M 164.5,433.5 C 165.873,433.343 167.207,433.51 168.5,434C 174.307,438.21 179.974,442.377 185.5,446.5C 183.883,445.962 182.216,445.629 180.5,445.5C 177.534,443.012 174.201,441.012 170.5,439.5C 168.93,437.053 166.93,435.053 164.5,433.5 Z"/></g>
<g><path style="opacity:1" fill="#125060" d="M 155.5,440.5 C 157.655,440.372 159.655,440.872 161.5,442C 166.116,444.464 170.116,447.631 173.5,451.5C 167.168,448.336 161.168,444.669 155.5,440.5 Z"/></g>
<g><path style="opacity:0.4" fill="#103a4a" d="M 343.5,444.5 C 338.498,448.003 333.165,451.003 327.5,453.5C 331.81,448.894 337.144,445.894 343.5,444.5 Z"/></g>
<g><path style="opacity:1" fill="#447665" d="M 180.5,445.5 C 182.216,445.629 183.883,445.962 185.5,446.5C 187.181,448.008 189.181,449.008 191.5,449.5C 192.167,450.5 192.833,451.5 193.5,452.5C 188.652,451.16 184.319,448.827 180.5,445.5 Z"/></g>
<g><path style="opacity:1" fill="#918825" d="M 243.5,375.5 C 243.5,410.167 243.5,444.833 243.5,479.5C 242.167,479.5 240.833,479.5 239.5,479.5C 235.265,477.12 231.265,474.454 227.5,471.5C 228.873,471.343 230.207,471.51 231.5,472C 234.838,474.725 238.505,476.892 242.5,478.5C 242.168,443.996 242.502,409.663 243.5,375.5 Z"/></g>
<g><path style="opacity:1" fill="#8e882b" d="M 191.5,449.5 C 196.059,451.113 200.392,453.279 204.5,456C 206.063,456.759 207.063,457.926 207.5,459.5C 202.833,457.167 198.167,454.833 193.5,452.5C 192.833,451.5 192.167,450.5 191.5,449.5 Z"/></g>
<g><path style="opacity:1" fill="#124c60" d="M 173.5,451.5 C 179.938,453.217 185.605,456.217 190.5,460.5C 198.146,463.399 204.812,467.732 210.5,473.5C 197.696,466.932 185.362,459.599 173.5,451.5 Z"/></g>
<g><path style="opacity:1" fill="#1a718c" d="M 170.5,439.5 C 174.201,441.012 177.534,443.012 180.5,445.5C 184.319,448.827 188.652,451.16 193.5,452.5C 198.167,454.833 202.833,457.167 207.5,459.5C 209.484,462.164 212.151,463.831 215.5,464.5C 216.167,465.833 217.167,466.833 218.5,467.5C 218.539,468.583 218.873,469.583 219.5,470.5C 221.167,471.167 222.833,471.833 224.5,472.5C 223.097,475.601 224.097,476.767 227.5,476C 224.937,475.237 224.937,474.737 227.5,474.5C 229.056,475.547 230.723,476.214 232.5,476.5C 233.031,479.779 235.031,481.113 238.5,480.5C 238.5,482.5 238.5,484.5 238.5,486.5C 238.5,486.833 238.5,487.167 238.5,487.5C 235.609,485.205 232.275,483.705 228.5,483C 227.833,482 227.167,481 226.5,480C 221.219,477.52 215.885,475.353 210.5,473.5C 204.812,467.732 198.146,463.399 190.5,460.5C 185.605,456.217 179.938,453.217 173.5,451.5C 170.116,447.631 166.116,444.464 161.5,442C 159.655,440.872 157.655,440.372 155.5,440.5C 152.372,437.03 148.705,434.364 144.5,432.5C 144.78,428.775 146.78,427.608 150.5,429C 153.389,434.626 158.056,437.126 164.5,436.5C 166.243,438.038 168.243,439.038 170.5,439.5 Z"/></g>
<g><path style="opacity:1" fill="#878735" d="M 207.5,459.5 C 211.219,459.564 213.886,461.231 215.5,464.5C 212.151,463.831 209.484,462.164 207.5,459.5 Z"/></g>
<g><path style="opacity:1" fill="#17708b" d="M 356.5,311.5 C 357.471,351.665 358.137,391.999 358.5,432.5C 355.018,438.308 350.018,442.308 343.5,444.5C 337.144,445.894 331.81,448.894 327.5,453.5C 315.197,460.654 302.864,467.82 290.5,475C 289.552,475.483 288.552,475.649 287.5,475.5C 282.233,478.051 276.899,480.718 271.5,483.5C 270.702,483.957 270.369,484.624 270.5,485.5C 267.028,487.738 263.362,489.738 259.5,491.5C 254.117,491.92 249.451,490.587 245.5,487.5C 245.5,486.167 245.5,484.833 245.5,483.5C 246.498,448.004 246.832,412.337 246.5,376.5C 247.833,376.5 249.167,376.5 250.5,376.5C 251.112,389.642 251.778,402.642 252.5,415.5C 252.169,437.34 252.503,459.006 253.5,480.5C 255.932,482.998 258.266,482.665 260.5,479.5C 263.723,476.753 267.389,474.753 271.5,473.5C 278.454,469.341 285.787,465.841 293.5,463C 295.041,461.629 296.375,460.129 297.5,458.5C 297.833,458.5 298.167,458.5 298.5,458.5C 304.771,455.364 311.105,452.198 317.5,449C 319.093,448.051 320.426,446.885 321.5,445.5C 323.844,445.325 325.511,444.158 326.5,442C 329.101,441.08 331.768,440.413 334.5,440C 335.743,438.846 336.743,437.512 337.5,436C 339.491,435.626 341.158,434.793 342.5,433.5C 343.833,433.167 345.167,432.833 346.5,432.5C 348.343,433.283 350.343,433.95 352.5,434.5C 353.5,434.167 354.167,433.5 354.5,432.5C 354.795,418.662 354.461,404.995 353.5,391.5C 353.667,388.833 353.833,386.167 354,383.5C 354.667,384.167 355.333,384.833 356,385.5C 356.5,360.836 356.667,336.169 356.5,311.5 Z"/></g>
<g><path style="opacity:1" fill="#758242" d="M 299.5,456.5 C 299.167,457.167 298.833,457.833 298.5,458.5C 298.167,458.5 297.833,458.5 297.5,458.5C 294.377,460.544 291.044,462.211 287.5,463.5C 289.64,460.723 292.307,458.556 295.5,457C 296.793,456.51 298.127,456.343 299.5,456.5 Z"/></g>
<g><path style="opacity:1" fill="#4a795f" d="M 321.5,445.5 C 320.426,446.885 319.093,448.051 317.5,449C 311.105,452.198 304.771,455.364 298.5,458.5C 298.833,457.833 299.167,457.167 299.5,456.5C 302.129,454.837 304.796,453.171 307.5,451.5C 311.261,450.453 314.594,448.619 317.5,446C 318.793,445.51 320.127,445.343 321.5,445.5 Z"/></g>
<g><path style="opacity:1" fill="#838632" d="M 255.5,378.5 C 255.188,411.864 255.521,445.198 256.5,478.5C 261.307,476.118 266.307,474.118 271.5,472.5C 271.5,472.833 271.5,473.167 271.5,473.5C 267.389,474.753 263.723,476.753 260.5,479.5C 258.609,480.536 256.776,480.536 255,479.5C 254.169,445.664 254.336,411.998 255.5,378.5 Z"/></g>
<g><path style="opacity:1" fill="#537754" d="M 342.5,433.5 C 341.158,434.793 339.491,435.626 337.5,436C 336.743,437.512 335.743,438.846 334.5,440C 331.768,440.413 329.101,441.08 326.5,442C 325.511,444.158 323.844,445.325 321.5,445.5C 323.582,441.614 326.915,439.447 331.5,439C 334.4,435.593 338.067,433.759 342.5,433.5 Z"/></g>
<g><path style="opacity:1" fill="#9f8c1d" d="M 344.5,430.5 C 343.833,431.5 343.167,432.5 342.5,433.5C 338.067,433.759 334.4,435.593 331.5,439C 326.915,439.447 323.582,441.614 321.5,445.5C 320.127,445.343 318.793,445.51 317.5,446C 314.594,448.619 311.261,450.453 307.5,451.5C 311.771,448.899 315.437,445.566 318.5,441.5C 320.396,440.534 322.396,440.201 324.5,440.5C 324.351,439.448 324.517,438.448 325,437.5C 326.011,438.337 327.178,438.67 328.5,438.5C 328.579,437.07 328.246,435.736 327.5,434.5C 333.149,433.086 338.816,431.752 344.5,430.5 Z"/></g>
<g><path style="opacity:1" fill="#7d8537" d="M 215.5,464.5 C 219.605,465.283 222.939,467.283 225.5,470.5C 222.881,470.075 220.547,469.075 218.5,467.5C 217.167,466.833 216.167,465.833 215.5,464.5 Z"/></g>
<g><path style="opacity:1" fill="#4c785e" d="M 297.5,458.5 C 296.375,460.129 295.041,461.629 293.5,463C 285.787,465.841 278.454,469.341 271.5,473.5C 271.5,473.167 271.5,472.833 271.5,472.5C 276.407,470.678 280.741,467.845 284.5,464C 285.448,463.517 286.448,463.351 287.5,463.5C 291.044,462.211 294.377,460.544 297.5,458.5 Z"/></g>
<g><path style="opacity:1" fill="#2e7177" d="M 218.5,467.5 C 220.547,469.075 222.881,470.075 225.5,470.5C 225.842,471.338 226.508,471.672 227.5,471.5C 231.265,474.454 235.265,477.12 239.5,479.5C 239.259,481.886 239.925,483.886 241.5,485.5C 240.609,486.11 239.609,486.443 238.5,486.5C 238.5,484.5 238.5,482.5 238.5,480.5C 235.031,481.113 233.031,479.779 232.5,476.5C 230.723,476.214 229.056,475.547 227.5,474.5C 224.937,474.737 224.937,475.237 227.5,476C 224.097,476.767 223.097,475.601 224.5,472.5C 222.833,471.833 221.167,471.167 219.5,470.5C 218.873,469.583 218.539,468.583 218.5,467.5 Z"/></g>
<g><path style="opacity:1" fill="#135668" d="M 210.5,473.5 C 215.885,475.353 221.219,477.52 226.5,480C 227.167,481 227.833,482 228.5,483C 232.275,483.705 235.609,485.205 238.5,487.5C 237.054,488.613 235.387,488.78 233.5,488C 225.432,483.642 217.765,478.809 210.5,473.5 Z"/></g>
<g><path style="opacity:0.165" fill="#0e3946" d="M 287.5,475.5 C 282.335,479.586 276.668,482.92 270.5,485.5C 270.369,484.624 270.702,483.957 271.5,483.5C 276.899,480.718 282.233,478.051 287.5,475.5 Z"/></g>
<g><path style="opacity:0.404" fill="#103f50" d="M 243.5,487.5 C 244.167,487.5 244.833,487.5 245.5,487.5C 249.451,490.587 254.117,491.92 259.5,491.5C 258.166,492.652 256.666,493.652 255,494.5C 252.087,492.75 248.92,491.583 245.5,491C 244.177,490.184 243.511,489.017 243.5,487.5 Z"/></g>
</svg>
